<?xml version="1.0" encoding="UTF-8"?>
<svg id="Layer_1" data-name="Layer 1" xmlns="http://www.w3.org/2000/svg" viewBox="0 0 500 500">
  <defs>
    <style>
      .cls-1 {
        fill: #7b5e52;
      }

      .cls-2 {
        fill: #ffe0b2;
      }
    </style>
  </defs>
  <rect class="cls-1" width="500" height="500"/>
  <g>
    <path d="M422.18,301.75c-.51-.49-3.3,2.37-4.07,2.68-.34.14-1.74.56-1.66-.22,5.86-3.23,10.64-9.86,12.69-16.18l-8.41,10.02c-22.46,13.72-49.13,18.71-74.98,22.07-30.84,4.01-63.05,6.33-94.15,6.99-.96.02-2.99,1.13-2.64-.39,3.19-.11,6.42.15,9.62,0,18.59-.9,37.21-2.96,55.7-4.91,28.81-3.03,55.67-5.85,82.92-16.18,6.81-2.58,13.41-6.28,20.07-9.21.04-.58.2-.99-.57-.78-2.18.6-5.66,3.34-7.92,4.37-9.45,4.31-25.84,9.47-36.05,11.05-.47.07-2.14.51-2.14-.3,3.18-.67,6.36-1.35,9.5-2.17,14.62-3.8,37.89-10.27,46.11-23.91,4.44-7.36.72-14.14-6.48-17.33,5.18,4.06,9.85,9.61,4.92,15.97,1.99-4.87,1.9-8.25-1.79-12.14-4.03-4.25-13.41-8.78-19-10.69-6.8-2.33-13.98-3.14-20.99-4.6.23.99,2.17,9.46-.58,10.87-.19.1-.4.16-.65.19l.83.62c-1.32,1.6-.33,2.81-.46,4.05-.21,2-.93,4.38-2.63,5.56l-.41-.82-2.26,1.84c1.38-2.3,3.7-3.91,4.51-6.55-1.18-.67-1.42,1.71-2.45,1.85.28-1.62,2.39-3.14,1.84-4.91-3.68,5.12-7.75,10.27-12.9,13.92l6.35-6.55c2.65-3.47,5.79-6.84,7.16-11.06l-3.07,3.27c-.3.07-.28-.43-.2-.61.45-1,4.68-5.38,3.68-6.77l-.81.42-.21-1.24c-4.01,4.33-8.38,8.91-13.6,11.79-.36.2-1.02.91-1.35.29,3.65-2.65,7.88-5.37,11.06-8.59,1-1.01,2.35-2.56,2.85-3.9-6.05,5.77-12.85,10.79-20.2,14.81-1.32.72-2.89,1.73-4.37,1.97l17.57-11.29c2.1-1.91,4.15-3.73,5.98-5.9.27-.32,1.07-.83.41-1.23-4.5,4.5-9.56,8.31-14.98,11.64-16.86,10.34-35.82,16.81-54.84,21.94-.06-.59.97-.67,1.42-.82,9-3.06,18.27-5.41,27.11-8.93,8.17-3.26,17.7-7.91,25.24-12.44,3.64-2.19,16.81-11.28,17.79-14.96.39-1.45-1.17-11.14-2.15-11.57-1.34,3.61-3.49,6.81-6.14,9.66,2.42-3.81,4.43-8.74,3.48-13.91-1.32-7.21-7.87-13.57-22.72-18.7-27.26-9.41-62.3-9.63-90.9-8.57-38.76,1.43-95.45,8.03-132.87,27.52-4.39.68-13.93,3.57-22.11,11.23-7.04,6.59-10.15,13.98-11.5,17.96l1.63-.21c.08.37-.1.94,0,1.23,1.11,3.16,1.69,6.02,3.69,8.8,3.08,4.27,7.66,6.32,11.46,9.63l-2.87-1.22c1.3,2.5,3.83,2.86,5.73,4.5-5.02-.39-5.74-5.47-9.63-7.37l-.4.82c-3.86-2.42-7.51-5.6-8.4-10.24l-1.22-2.46.88,6.28c.88.57,6.19,6.63,5.66,7.23-1.81-1.16-3.52-3.72-4.51-5.73l-.81.2,1.22,2.25-1.43-1.23c-1,1.36,4.49,5.51,3.89,6.14-4.94-3.15-8.22-8.01-7.37-13.92-.03.02-.07.05-.1.07.05-2.78.17-3.75.32-3.76.17,0,.29,1.32.57,1.33.29,0,.58-1.44.85-3.37-6.09,1.57-12.12,3.55-17.88,6.07-9.05,3.95-24.57,12.31-20.62,24.45.3.93,1.47,3.91,1.89,4.66.73,1.31,2.8,1.89,2.02,4.12l-1.6-1.67-2.29-3.65c-.89,4.94,2.99,8.12,4.81,11.77,1.5,3.01,2.6,7.43,4,10.74,10.43,24.63,22.98,46.37,40.93,66.36,23.06,25.67,53.44,30.96,86.41,33.98,47.19,4.32,99.18,3.4,144.66-10.95,33.45-10.55,55.47-33.48,69.78-64.94,1.52-3.33,4.41-9.46,5.24-12.78.06-.22.12-.67-.19-.6-.83.94-2.24,1.64-3.48,1.02.82-1.02,2.3-.93,3.27-1.65,1.66-1.24,3.67-10.64,4.4-13.21.37-1.3,1.4-2.91,1.59-4.18.14-.95-.33-1.69-.09-2.48.34-1.13,2.98-2.19,1.89-4.9-1.44.82-2.64,2.32-4.5,2.04l4.09-2.86c-1.47.18-2.74,1.37-4.08,1.86-.39.14-1.33.54-1.24-.22,2.88-1.19,7.8-2.81,7.58-6.56-1.7,1.21-3.71,3.21-5.94,3.07,2-1.65,5.44-2.25,6.55-4.71ZM393.09,312.17l2.06-.18c-.37.63-2.04.91-2.78,1.11-9.88,2.64-19.82,5.26-29.98,6.66l30.69-7.59ZM260.61,327.52c2.59-.09,5.23.16,7.81.03,26.67-1.34,53.44-3.75,79.89-7.36l3.01.8-2.67,1.22.62-1.22c-10.44,1.12-20.86,2.97-31.33,4.09-25.85,2.76-51.89,3.3-77.79,4.53l-20.29-.02c.15-.74.8-.76,1.42-.83,12.29-1.38,26.81.94,39.31-1.23ZM221.52,325.49c2.09.35,5.71-.47,7.58,0,.14.04.63.56.61.81l-1.86.02-6.33-.84ZM348.14,316.77c-4.08.43-8.1,1.26-12.17,1.76-18.73,2.3-37.73,3.22-56.51,4.09-28.44,1.32-56.69,1.86-85.16,1.22-13.33-.3-26.67-.41-39.94-1.63-.1-.71.93-.38,1.43-.41,2.54-.1,4.64.35,6.95.43,48.44,1.5,97.02,1.75,145.39-1.66,14.73-1.04,29.38-3.16,44.02-4.91l-4.01,1.11ZM180.97,325.09l-3.5.42-19.24-1.23-1.42-.83,24.16,1.64ZM131.83,320.58c.11.68-.99.44-1.45.42-9.55-.33-28.41-3.32-37.38-6.47-.66-.23-1.1.21-.89-.92,12.88,3.91,26.42,5.11,39.72,6.97ZM99.49,314.44l19.24,2.87c-.28.8-2.35.41-3.02.35-4.22-.36-8.42-1.62-12.63-2.11l-3.6-1.1ZM123.49,318.48c-.95-.16-2.7-.21-3.12-1.17l20.47,2.46-1.31.29c-5.19-.76-10.9-.72-16.04-1.57ZM129.63,316.43c-6.21-.8-12.58-1.64-18.69-3.02-.45-.1-1.32,0-1.22-.61,16.03,2.39,32.1,4.92,48.32,5.73-.28.72-2.43.46-3.09.42-8.39-.45-16.98-1.45-25.32-2.53ZM169.92,321.19c6.05-.29,12.18-.31,18.24-.22,25.44.37,50.73.53,76.14,0,6.65-.14,13.26.08,19.88-.39l-5.94.81c-3.03-.34-6.09.31-8.99.43-23.33,1-46.38.56-69.62-.03-9.91-.25-19.81-.08-29.71-.6ZM369.76,271.03c-1.82,1.83-4.24,3.47-6.43,4.83-3.02,1.89-7.86,4.75-11.02,6.18-.59.27-1.12.55-1.8.45l19.24-11.46ZM332.91,291.5c.22-.61,1.57-1.02,2.18-1.29,1.65-.73,3.41-1.19,5.06-1.9,6.1-2.62,12.03-5.68,18.15-8.26-2.91,2.1-6.65,3.86-9.96,5.39-5,2.31-10.17,4.43-15.43,6.07ZM348.06,287.82l-5.99,3.21c-5.55,2.15-10.99,4.87-16.93,5.79-.1-.6.71-.54,1.14-.69,2.08-.71,4.25-1.12,6.33-1.87,5.25-1.89,10.22-4.64,15.46-6.44ZM347.79,282.44c-10.87,4.98-23.33,9.01-34.87,12.23-14.79,4.12-29.86,7-45.13,8.72-.36-1.07,1.27-1.01,1.95-1.11,11.02-1.58,21.16-3.08,32.04-5.64,17.38-4.1,34.53-9.59,50.77-17-1.13,1.23-3.22,2.09-4.77,2.8ZM262.47,301.33l22.13-4.28c6.73-1.27,13.7-3.74,20.35-5.03.85-.17,1.71-.12,2.56-.09l-23.25,6.03-21.8,3.38ZM331.27,286.59c.1.6-.71.54-1.14.69-16.99,5.74-35.05,10.82-52.83,13.52-1.49.23-3.22.56-4.68.69-.66.06-1.02.44-1.55-.36,10.11-1.89,20.23-3.79,30.23-6.21,10.08-2.44,19.96-5.63,29.96-8.32ZM313.56,289.16c-11.88,2.96-23.74,6.89-35.94,8.08l21.22-4.78,21.37-5.86-6.65,2.56ZM264.52,293.14l28.16-5.61,2.14-.11-13.85,3.14-16.45,2.58ZM330.96,281.16c-14.02,5.19-28.55,8.96-43.1,12.39-.2-1.2.29-.66.95-.87,6.68-2.05,13.57-3.44,20.43-5.39,8.35-2.38,16.6-5.11,24.89-7.66l-3.17,1.53ZM296.13,286.89c2.69-.95,8.24-2.37,11.06-2.89,1.2-.22,3.04.18,4.42-.28l-2.76,1.12-13.61,2.97c-.2-1.14.24-.69.9-.92ZM99.2,271.11c-.3-1.2-1.09-3.57-.73-6.64,1.28-10.88,14.66-17.9,24.09-21.85-2.07,1.26-4.09,2.56-6,3.91-8.81,6.24-18.15,15.43-9.09,26.14,9.93,11.74,46.46,19.89,61.48,20.02l3.03-.77c-6.09-.16-12.1-1.13-18.09-2.18-12.81-2.25-42.1-8.39-47.92-21.29-2.82-6.26-.2-11.09,4.38-15.43.22,1.53-1.62,2.76-2.43,4.13-2.87,4.91-2.3,9.53,1.19,13.89,11.16,13.98,49.57,19.16,66.74,20.08,3.49.19,7-.22,10.46.39.89-.64-5.45-1.52-5.99-1.58-13.93-1.71-26.05-1.82-39.97-5.49-9.86-2.6-25.9-7.57-26.94-19.54,1.11-.25.7.34,1.01.81,6.76,10.18,13.58,13.55,25.29,16.9,3.03.87,7.68,2.17,10.74,2.36.45.03,1.93.29,1.85-.42-6.04-.82-12.17-2.36-17.93-4.39-6.83-2.41-15.28-6.23-17.69-13.63,2.3,2.16,3.96,4.42,6.58,6.31,6.78,4.88,23.34,9.94,31.68,10.49,7.12.48,15.5-3.51,22.57-5.31,15.28-3.89,31.17-6.23,46.86-7.81l-3.52,1.18c-18.06,2.79-39.89,4.99-56.78,12.01-.35.14-1.73.53-1.32,1.14,24.69-7.59,49.26-10.76,74.91-13.55,3.11-.34,6.37-1.35,9.88-1.21,1.92.07,3.66.83,5.62.49l.71.75c-15.74.65-31.28,3-46.76,5.87-8.72,1.62-18.07,3.28-26.54,5.81-2.51.75-4.81,1.99-7.38,2.45-.87.99-.18.52.46.46,8.08-.8,15.31-2.76,23.22-4.22,18.88-3.48,39.69-6.03,58.85-7.5,2.59-.2,9.23-.74,11.46-.42.34.05.62.11.82.41.02,1.51-1.84.32-2.87.37-2.75.15-8.89.03-11.05.45-.9.17-1.15,1.04-2.06,1.22-2.44.48-6.63,0-9.38.45-8.88,1.43-17.98,3.1-26.93,4.6-9.97,1.67-19.94,3.45-29.82,5.61-.08.77.86.33,1.31.29,7.86-.73,15.53-2.25,23.27-3.76,13.03-2.53,26.64-4.1,39.92-5.13,4.4-.34,9.26-.14,13.71-.41.35,1.03-1.24,1.1-1.88,1.18-9.47,1.13-19.1,1.33-28.57,2.56-11.74,1.52-23.26,4.59-35.06,5.68-.13.52.76.67,1.08.68,5.74.1,11.84-1.27,17.56-1.91l16.58-1.23-22.93,3.28c-.1.71.93.39,1.43.41,3.78.15,8.12.16,11.9.02,31.23-1.18,62.04-7.42,91.31-18.03,12.56-4.55,34.29-14.41,42.59-24.98,6.13-7.81.12-15.39-7.37-18.85-19.1-8.81-53.19-11.06-74.14-10.25l-15.34,1.25c0,.7,1.82.47,2.28.44.71-.05,1.38-.43,1.61-.44,2.11-.1,4.24.07,6.35,0l-42.18,5.32c10.16-.71,20.33-1.61,30.52-1.65,12.99-.06,26.27.68,39.3,1.65,3.81.28,7.59.31,11.4.88.65.1,2.47.18,2.72.76-6.35-.38-12.67-1.3-19.02-1.65-20.78-1.16-40.79.83-61.44,2.48-5.56.98-11.17,1.64-16.74,2.51-1.02.16-2.12.33-3.13.56-.45.1-1.32,0-1.22.61,9.84-1.68,19.75-1.98,29.7-2.44,16.65-.76,33.69-1.49,50.37-.44,3.37.21,6.79.64,10.16.89l5.58,1.17-18.61-1.65c-15.46-.23-30.87.22-46.29.84l-26.42,3.27.2.81c2.37-.67,4.94-1,7.38-1.22,4.99-.45,10.59-1.03,15.54-1.25,1.31-.06,2.8-.03,4.12.02.5.02,1.52-.31,1.43.41l-15.76,1.24-4.3.81c6.55.15,13.36-1.49,19.86-1.43.35,0,1.14.06,1.02.61-10.23,1.26-20.61,1.48-30.8,2.99-.24.04-2.6.44-.93.72l46.27-3.7,1.43.41c-14.45.79-28.81,2.25-43.15,4.15-6.57.87-13.69,2.6-20.13,3.22-1.22.12-2.44-.38-3.22-.3-.81.09-1.69,1.23-2.94,1.5-.37.08-1.53.3-1.41-.38l1.63-.41c-.58-.04-1.16-.02-1.74.09-23.81,4.81-45.25,12.45-66.59,23.92-.56.3-.95.72-1.7.55.52-.72,1.58-1.5,2.33-1.97,14.11-8.85,31.14-15.59,46.92-20.24,5.63-1.66,11.36-3.14,17.09-4.41.1-.74-.89-.37-1.33-.3-.86.14-1.7.53-2.6.68-.88.14-1.81-.04-2.73.14-9.56,1.84-18.71,5.59-28.15,7.68l2.87-1.43c-2.37-.96-3.7,1.56-5.03,2.38-1.54.96-4.02,1.23-5.71,2.03-2.14,1-4.08,2.6-6.26,3.57-.31-1.93,3.04-2.25,4.3-2.87.07-.8-1.26-.35-1.65-.21-2.53.87-6.15,2.81-8.59,4.1-2.12,1.12-4.13,3.18-6.54,3.48,6-4.76,13.13-7.75,20.08-10.83,3.5-1.55,7.55-2.31,10.52-3.78.64-.31.6-1.03,1.2-1.27.96-.38,2.72-.34,3.81-.91.09-.73-1.4-.44-1.8-.37-10.6,1.79-22.48,9.35-32.15,13.72-.61.28-1.18.22-.85-.44.34-.69,11.69-6.68,13.36-7.52,4.55-2.3,9.26-4.54,14.07-6.21.09-.76-.83-.32-1.25-.22-1,.24-2.36.77-3.36,1.14-1.97.74-5.03,2.72-6.66,3.17-.72.2-.86-.34-.41-.82.36-.38,8.42-4.01,9.52-4.41,1.35-.49,5.12-1.03,5.84-1.53,1.67-1.15-1.42-1.72-2.45-1.02l1.22.81-7.58,1.23c3.67-2.11,7.82-3.84,11.98-4.82,1.54-.36,2.04.62,2.42-1.34,26.75-8.03,54.73-12.99,82.68-14.3,5.71-.27,12.77.05,18.02-1.23,3.81-.93,10.27-1.47,14.72-1.65,12-.48,23.35,1.06,35.22,2.04,9.73.8,17.93.64,27.64,3.07,2.38.59,8.29,2.22,10.24,3.28.54.29.66.78-.21.62-3.58-1.16-7.55-2.85-11.24-3.51-.43-.08-1.72-.59-1.66.22,15.8,3.48,40.11,14.24,20.89,32.16-9.96,9.29-23.5,13.23-34.66,20.2l-30.46,9.89c2.41.6,4.08-.64,6.05-1.11,16.94-4,54.4-17.48,65.41-30.83,3.39-4.11,6.02-10.97,3.29-16-.6-1.11-1.7-1.66-1.86-2.85,1.37,1.44,4.54,5.17,5.27,10.81.62,4.76-.77,8.82-2.47,11.84-7.08,7.25-17.42,12.25-26.01,16.19-34.31,15.76-78.27,24.12-115.84,27.49-30.1,2.7-61.95,3.15-91.6-3.4-10.9-2.41-36.08-10.2-39.11-22.31ZM165,248.71c.05-1.55,1.9-.54,2.37-.74.07-.03.12-.53.41-.65,1.74-.7,6.05-2.71,7.62-2.52.33.04.06.9.82.85,1.81-.11,5.03-1.79,7.47-2.01,1.67-.15,3.39.33,4.68.18,1.71-.2,3.98-1.7,5.62-2.16,6.07-1.72,9.7-1.18,15.44-1.76,6.34-.63,12.68-1.95,19.05-2.46-.21-.85-.61-.65-1.22-.64-5.15.08-11.14,1.68-16.34,2.07-.39.03-1.37.03-1.28-.6,6.88-.77,13.78-1.87,20.68-2.46,14.98-1.27,30.08-1.61,45.05-1.24,6.76.17,13.52.18,20.27.83.27,1.72-2.37.45-3.11.45-3.32-.04-6.76.03-10.19-.04-.89-.02-2.21-1-2.67.41h3.69c-.07.56-.56.72-1.04.81-3,.51-7.77-.12-11.06,0-18.7.69-37.5,2.16-56.05,4.56-16.11,2.08-32.7,5.39-48.47,10.5-1.19.39-3.09.7-3.78,1.74,6.37-1.31,12.59-3.58,18.91-5.04,37.06-8.56,75.57-10.79,113.56-9.28l3.89.81c-1.7-.05-3.43.07-5.13.02-23.08-.68-46.13,2.2-69.14,4.54l-8.85,1.99c4.71-.24,9.45-1.25,14.13-1.63,9.69-.78,20.57-1.36,30.28-1.66,12.19-.37,24.32.46,36.47.84l1.43.41-36.26-.42c-.97.03-1.86.4-2.83.44-16.46.66-32.78,2.28-49.05,5-4.27.71-9.98,1.59-14.05,2.74-.56.16-1.27.05-1.41.83,2.39-.35,4.85-1.2,7.21-1.59.91-.15,1.86.06,2.78-.09,32.96-5.4,76.75-7.14,109.79-2.4.76.11,1.21-.42,1.03.8-2.06-.11-4.32-.67-6.35-.81-26.79-1.94-50.8-1.37-77.34,2.1-6.46.84-14.08,2.23-20.42,3.75-.61.14-2.19.43-2.36,1.11,6.61-.84,13.28-2.12,19.91-2.81,18.53-1.93,37.21-1.46,55.64-2.1l5.53.81h-18.65c-.97.01-1.86.4-2.83.43-15.03.44-28.15,1.73-42.98,3.3-.39.04-1.54.18-1.47.78,9.59-1.13,19.24-1.82,28.85-2.47l30.12-.39-.7.73c-23.28.09-46.8.29-69.65,4.9l-.45,1.13c-.55.35-12.09,2.21-12.95,2.11-.27-.03-.61-.37-.6-.67l3.47-.42c.67-.58-.43-.4-.76-.36-7.14.94-15.35,2.61-22.39,4.24-7.02,1.62-14,3.63-20.68,6.35-1.54-.03.67-1.07.88-1.17,2.46-1.19,5.92-2.41,8.54-3.34,4.86-1.71,10.24-3.55,15.36-4.09l-2.86-.81,14.33-2.88-.61-1.22c-.39.33-.82.61-1.33.71-9.02,1.82-18.94,5-27.87,7.76-5.42,1.67-10.76,3.78-15.85,6.27-.82-.63-.13-.66.32-.93,1.07-.64,2.7-1.36,3.87-1.85,7.64-3.18,16.78-6.23,24.68-8.9,1.3-.44,2.81-.47,4.09-1.03.08-.73-1.4-.44-1.8-.37-1.54.26-2.9,1.19-4.23,1.51-7.69,1.82-15.39,3.87-22.84,6.64-4.36,1.62-8.45,3.85-12.68,5.74-.5-.29.68-1.06.88-1.17,3.1-1.75,7.17-3.06,10.35-4.83,1.14-.63,1.37-1.38,2.19-1.88,1.26-.77,2.99-1.47,4.4-1.96l-2.25-.41c2.11-.92,3.3-2.14,5.39-2.81.66-.21,1.16.33.96-.87-8.86,2.37-17.82,5.17-26,9.42l-.61-.82,12.28-4.93-2.04-.81c2.18-.33,4.09-1.68,6.12-2.28,2.18-.64,5.25-.85,7.39-1.62,2.06-.74,4.11-2.68,6.27-3.56,3.5-1.42,7.91-1.94,11.54-3.2.67-.55-.47-.44-.8-.4-4.97.57-10.43,2.88-15.15,4.5l-.42-.82,1.85-1.02-2.86-.61,1.63.81-3.68.82h2.45s-1.23,1.23-1.23,1.23l2.05.41c-2.03.38-3.94,1.7-5.97,2.02-.42.07-1.1.27-.98-.37l2.04-.42c.11-.72-.95-.43-1.34-.32-1.98.56-8.4,4.3-9.84,3.95-.3-.07-.85-.61-.7-.76,3.88-1.54,8.42-2.99,12.11-4.88.45-.23,1.26-.09.39-.85-1.57.51-3.22,1.33-4.72,1.86-2.51.89-6.17,1.73-9.11,3.15-.76.37-1.26,1.33-1.83,1.48-.76.21-1.51-.38-2.57-.18-2.86.53-6.92,3.8-9.84,4.74,2.49-2.27,6.19-4.12,9.27-5.67,6.94-3.49,15.82-7.34,23.09-10.08,1.15-.43,2.41-1.08,3.57-1.34,2.65-.59,5.94.91,7.88-1.33l-7.78.61ZM171.15,244.82l3.52-1.18,5.89-.45c-.1.64-1.96,1.01-2.43,1.04-.83.07-1.57-.32-2.25-.24-1.59.18-3.07,1.02-4.73.83ZM199.82,239.49c.36-.63,2.06-.93,2.78-1.11,4.19-1.03,8.54-1.4,12.78-2.16.2,1.26-.32.65-1.02.8-4.8,1.01-9.71,1.63-14.53,2.47ZM219.88,235.6l11.87-1.43c-.16.82-.87.67-1.43.81-2.72.69-6.09.87-8.9.96-.6.02-1,.51-1.54-.35ZM238.6,233.44c.59-.1,2.87-.49,3.19-.49h9.21l-.2.81c-3.55-.8-8.56.22-12.29.43-1.19.11-.37-.67.08-.75ZM322.88,230.07l-8.81-1.63c3.33-.33,6.52.75,9.83.82l-1.02.81ZM324.31,254.24c0,.71.23.88-.58.79-1.48-.17-3.47-.51-4.95-.79-.6-.11-1.27,0-1.44-.81l6.96.82ZM289.3,254.65c-1.29.16-4.77.42-5.54-.82h6.14c.66.5,0,.74-.61.82ZM178.52,276.35c-.1-.63.76-.48,1.23-.6,3.85-.98,7.87-1.8,11.78-2.56,17.2-3.33,34.66-5.43,52.1-7.07l-5.58,1.17c-19.92,2.4-39.84,5.19-59.53,9.06ZM231,269.64c-2.02.29-4.17.24-6.2.56-.07-.61,1.1-.6,1.55-.69,1.7-.33,3.66-.53,5.41-.53.15,1.35-.23.58-.76.66ZM258.78,259.57l-11.26,1.63c-23.53,1.51-46.69,6.02-69.81,10.24.36-.68,2.1-.85,2.86-1.03,25.68-5.95,51.91-9.39,78.22-10.84ZM201.94,263.14c3.12-1.02,9.39-1.79,12.88-2.29,7.68-1.1,15.39-1.64,23.08-2.51.19,1.25-.31.67-1.03.8-4,.72-8.53.74-12.63,1.3-7.74,1.06-15.43,2.65-23.19,3.63-.19-1.11.2-.71.89-.93ZM247.12,259.16c.45-1.47,3.53-.71,4.92-.81.53-.04,1.07-.42,1.21-.42h7.17l-5.12.81-8.18.42ZM233.19,263.25c6-.65,12.09-.87,18.02-1.63l.19.81c-3.87.32-7.8.4-11.66.83-14.17,1.57-28.44,3.61-42.47,6.27-15.27,2.89-30.54,6.38-44.97,12.16-.13-1.12,1.26-1.48,2.05-1.84,3.44-1.54,8.64-2.9,12.37-4.01,20.94-6.22,44.71-10.24,66.45-12.58ZM232.16,265.3c-.25.58-2.07.66-2.72.76-6.56.97-13.26,1.36-19.8,2.51l4.01-1.1c6.18-.71,12.25-2.23,18.51-2.16ZM232.99,265.29l6.76-1.22c4.52-.15,9.01-.93,13.52-1.23,2.53-.16,8.04-.69,10.25-.43.61.07,1.26.08,1.42.83-10.7-.04-21.26,1.62-31.94,2.05ZM262.88,264.07c-.08,2.23-3.97,2.09-5.32,1.02l5.32-1.02ZM269.84,268.58c-1.23,1.66-3.89.78-5.53.78-1.1,0-2.24.97-3.07-.17l8.6-.61ZM266.56,258.33c-.09-.72.93-.39,1.43-.41,3.12-.12,6.89-.67,9.85-.43.72.06,1.58-.08,1.82.84h-13.1ZM369.76,236.83c-.12-1.16-.88-2.06-.62-3.07,2.85,3.71,1.31,10-1.84,13.1,1.48-3.53,2.86-6.01,2.45-10.03ZM258.78,302.97c.02.62-1.43.7-1.89.77-2.23.33-4.7.23-6.91.46-5.07.53-10.18,1.53-15.36,1.22-.66-.5,0-.74.6-.82,1.72-.21,3.94.08,5.68-.06.92-.08,1.82-.49,2.71-.56,5.02-.42,10.15-.4,15.16-1ZM104.09,287.91c1.78.74,3.52,2.04,5.35,2.84,3.3,1.44,6.64,2.33,9.95,3.57.52.2,1.26.09,1.38.86-6.34-.91-12.47-4.04-18.02-7.16.72-.97.67-.39,1.33-.11ZM99.89,290.68c-.84.12-4.48-2.24-4.49-2.66l1.58-.56c.17.39.31.91.63,1.19.88.76,2.33.94,2.28,2.03ZM94.15,282.3l3.7,4.7c-.69.62-3.46-3.09-3.86-3.72-.96-1.51-2.06-3.47-1.87-5.29l2.03,4.31ZM94.16,292.32c-1.96-1.93-2.69-5.17-3.27-7.78l3.27,7.78ZM61.8,288.23c.09.97-1.42,4.27.41,4.1.6-4.91,5.38-9.11,9.29-11.8,3.79-2.61,15.59-8.81,20.14-9.45.02.53.04,1.07.06,1.6.25.2.5.41.75.61-6.06,3.96-19.78,7.9-16.75,16.81,1.23,3.61,7.61,6.38,11.08,7.14l-1.03-1.63,10.86,4.09c.1.71-.95.42-1.38.36-1.2-.15-2.3-.79-3.53-.77.17.72.95.9,1.54,1.12,3.71,1.32,9.17,2.39,13.12,3.26,31.77,6.97,62.63,6.88,94.9,8.3,44.65,1.96,91.6-1.89,135.87-8.65,18.19-2.78,47.75-7.13,63.61-15.83.98-.54,5.29-3.25,5.74-3.88,3.26-4.59-4.1-10.94-7.24-13.38,4.99,1.96,10.54,5.71,9.83,11.87,1.32-.47.63-4.23.31-5.43-1.06-3.89-6.27-5.51-8.91-8.08,7.95,2.5,16.64,10.33,7.37,17.6.37.35,3.67-2.59,4.09-3.08,2.06-2.42,2.81-5.62,1.18-8.54-2.44-4.38-10.01-7.07-12.84-8.05-4.29-1.48-9.41-3.09-15.27-4.63-.11-1.13-.22-2.26-.32-3.39,3.71-.31,6.51.25,8.43.85,2.28.71,3.5.98,11.44,3.31,2.4.71,2.45.71,2.89.84,5.6,1.73,16.7,7.3,17.03,14.26.14,3.05-1.48,6.44-5.76,10.07-11.78,9.99-42.82,16.81-58.29,19.93-53.37,10.77-113,12.44-167.35,11.17-36.52-.85-85.95-2.76-119.91-16.46-5.01-2.02-13.09-5.25-12.42-11.79.05-.47.43-2.34,1.06-2.45ZM58.23,297.33c-.42-.93-1-2.57-.96-3.57.08-1.66,2.1-6.51,3.3-7.79.31-.33.95-1.15.82,0-7.21,10.29,4.61,14.72,12.3,18.02,2.8,1.2,6.37,1.71,8.59,3.89-6.29-2.29-12.82-4.31-18.57-7.84-.77-.47-1.21-1.25-1.94-1.75-.4-.28-1.19-.16-1.61-.44-.57-.39-1.57-3.79-1.65-4.7-.76-.08-.4,1.34-.31,1.74,1.35,6.16,7.53,9.35,12.73,11.84,4.43,2.13,9.44,4.04,14.2,5.26l-.2.81c-8.16-3.44-22.75-6.6-26.72-15.46ZM81.05,309.12c.07.82-1.18.24-1.56.12-2.84-.85-7.07-2.8-9.77-4.15-2.33-1.17-5.34-2.69-7.09-4.57l9.27,4.85,9.15,3.75ZM68.78,324.05c-.41-.44-1.8-1.98-1.45-2.65l10.07,7.54,11.43,5.97c-6.49-.75-11.42-5.75-17.2-8.19,2.02,1.76,4.65,3.65,7,5.08,2.34,1.43,4.73,2.82,7.33,3.72-.37.96-2.33-.05-2.97-.3-4.71-1.79-9.84-5.86-13.4-9.32.18-.15,1.6.63,2.05.82-.89-.78-2.06-1.82-2.86-2.67ZM69.59,322.22c.2-.18,3.9,2.12,4.3,2.45.5.42,1.15.89,1.02,1.64-1.83-1.23-4.04-2.23-5.32-4.09ZM82.7,329.18c1.64.43,4.1,1.23,5.54,2.03.57.31,1.19.34,1,1.25l-6.55-3.27ZM71.64,331.64c.75-.66,3.44,3.24,3.89,3.68,2.38,2.32,5.84,5.17,8.68,6.88,2.15,1.29,4.91,2,6.68,3.76-7.64-2.45-14.36-8.04-19.25-14.32ZM86.79,359.48l10.23,15.15c-4.27-4.1-7.95-9.66-10.23-15.15ZM102.34,323.25c-9.44-2.16-19.57-4.91-28.4-8.87-4.21-1.89-9.55-4.27-12.55-7.72l4.91,2.45c-.34-1.19-3.2-1.4-2.66-2.86,8.73,5.73,19.56,9.25,29.6,12.17,13.94,4.04,28.25,6.96,42.68,8.72.07.73-1.38.43-1.83.4-14.81-1.1-29.95-5.21-44.24-9.01-1.12,0-1.11.11-.05.46,9.4,3.16,19.59,5.05,29.33,6.92.09.73-.92.4-1.38.35-4.69-.44-10.73-1.94-15.42-3.01ZM144.74,359.9c-1.6-.1-3.3-.28-4.92-.42-5.5-.45-12.7-1.02-18.02-2.05-.6-.12-1.27,0-1.44-.81l24.98,2.45c.03.73.21.87-.61.82ZM180.97,399.82l29.9.62c-.83,1.63-2.9.43-4.28.39-8.53-.23-17.28.61-25.62-1.01ZM187.12,399.21v-.41h10.65v.41h-10.65ZM232.3,404.68c20.17-.31,41.14-1.92,61.49-3.84,3.21-.3,6.37-1.24,9.58-1.59l.46,1.18c-3.84-.5-8.11.81-12.08,1.23-25.88,2.72-55.61,5.52-81.51,3.71-.7-.05-1.35.04-1.82-.64,7.97-.01,15.88.07,23.88-.05ZM199.59,413.15c-.59-.04-2.15-.04-2.23-.84h20.07c.09-.72-.92-.39-1.43-.41-2.18-.09-4.37.08-6.55,0l-7.99-.81c8,.04,15.96.48,23.97.42,7.14-.05,14.57-.7,21.71-.85,1.09-.02,3.37.07,4.42.23.47.07.94-.21,1.08.6-1.55.09-3.15-.11-4.7,0-.55.04-2.48.2-2.67.81,6.77-.02,13.48-1.09,20.27-.81.5.02,1.52-.31,1.43.41-3.25-.22-6.38.64-9.6.83-18.4,1.08-39.4,1.62-57.78.42ZM230.94,415.17c0-.69,1.36-.78,1.84-.82,4.63-.37,9.67-.26,14.32-.42,5.93-.21,11.9-.26,17.83-.39l-4.3.81-29.68.82ZM297.92,414.37c-7.31,1.89-16.03,1.77-23.57,2.44l5.56-1.61c3.85.96,7.76-.39,11.64-.44l-2.04-.81,9.41-.41c.2,1.24-.32.65-1,.83ZM295.02,411.04c.99.06,1.95.51,2.87.48,3.36-.11,7.03-1.26,10.44-1.26l-8.45,1.99c-9.54-.45-18.83,1.59-28.21,2.92l-25.18,1.64c-.17-1.14.2-.76,1.02-.82,9.4-.62,18.86-.97,28.2-2.11,4.62-.56,9.29-1.39,13.93-2.04.52-.07,2.23-.17,2.3-.76-4.82.5-9.71.74-14.53,1.23-2.8.28-5.88,1.02-8.61,1.22-.46.03-1.52.3-1.42-.4l15.81-2.42c12.32-.45,24.36-3.32,36.61-4.54l-17.93,3.56c-1.37.68-8.55.37-9.09.94-1.2,1.27,1.93.35,2.25.37ZM326.61,402.94c-17.76,3.06-35.79,5.3-53.32,8.52l-5.08-.17c2.22.19,3.8-.87,5.65-1.31,11.23-2.7,22.99-3.07,34.63-4.68,8.99-1.25,17.89-3.22,26.88-4.44-2.08,1.86-6.1,1.64-8.75,2.09ZM338.73,399.09c-4.78,1.18-10.41,1.82-15.34,2.69-6.53,1.15-13.37,2.71-20.05,3.3-.69.06-.96.58-1.55-.34.01-.53,4.05-1.18,4.81-1.32,5.76-1.03,11.67-1.33,17.44-2.22,5.28-.81,10.46-2.43,15.82-2.81.1.58-.73.59-1.14.7ZM335.77,394.71l-4.02,1.1-26.69,4.22c-.68-.52.04-.75.61-.81,9.99-1.23,20.05-3.11,30.1-4.5ZM314.69,395.95c2.18-.37,4.42-.63,6.55-1.24l.2.81-7.78,1.23c-.19-1.24.3-.68,1.03-.8ZM337.92,397.06c-3.09.67-6.75.62-9.93,1.33l3.58-1.12,8.7-1.33c-.16.66-1.78,1-2.35,1.12ZM355.84,402.69c-2.75.96-6.13,1.35-9.01,1.84l10.65-2.86c-.18.78-1.03.81-1.64,1.02ZM396.7,326.84c-5.37,1.62-10.68,3.81-16.29,4.38.24-.57,1.75-.9,2.37-1.1,8.21-2.7,16.78-4.28,24.87-7.48,2.98-1.18,5.88-2.77,8.79-4.1-5.56,5.07-12.82,6.22-19.74,8.3ZM400.47,327.14l-14.23,4.4c-1.2-.16-2.87.97-3.79-.1l18.01-4.29ZM417.26,315.26c-3.2,3.15-7.64,4.8-11.77,6.44-5.23,2.08-11.21,4.2-16.58,5.94-3.47,1.13-7.39,2.43-10.96,2.76-.2,1.24.31.65.99.83,1,.25,2.06.43,3.1.4l-3.05,1.66-7.08,2.34-15.67,2.15c-.09.76.86.34,1.31.29,12.29-1.39,24.42-3.71,36.36-6.84.19,1.1-.19.71-.89.93-7.11,2.24-14.63,3.4-21.87,5.18l-.99,1.26c11.25-.96,21.89-5.35,32.76-8.18l-12.38,5.02-18.33,4.4c0,.78,1.7.4,2.2.35,3.45-.34,7.5-1.39,10.91-2.19,8.51-2.01,16.83-4.76,24.77-8.4l.61.21c-5.09,2.95-10.86,5-16.46,6.88-3.3,1.11-6.83,2.33-10.16,3.36-1.88.58-4.46.37-6.14,1.64,9.24-1.13,18.24-3.73,26.89-7.1l.54.75c-12.13,3.96-24.36,7.69-36.85,10.45-4.34.96-8.54,1.57-12.85,2.3-4.04.68-8.06,1.52-12.13,2l3.88.4c13.38-1.68,26.51-4.19,39.53-7.57,4.41-1.14,8.67-2.81,13.1-3.89l-15.94,6.29c-6.13,1.31-12.19,3.05-18.37,4.23-2.18.41-10.53,1.15-11.55,1.99-.34.28-.38.94-.44.99-.33.24-1.36-.8-2.21-.83-1.09-.04-4.04.91-5.14,1.46,2.53.67,4.08,1.03,6.55-.21l-.41,1.22h1.64c-.88-2.38,1.18-1.6,2.38-1.87,1.46-.33,3.25-1.72,3.56-.17l.83-1.24h.8c.32,1.53,3.68.69,4.82.32,5.47-1.81,9.96-2.36,15.55-3.7,5.51-1.32,10.95-3.15,16.49-4.39.65.41-.3.51-.59.64-1.99.9-4.4,1.78-6.47,2.54-11.85,4.38-25.17,7.83-37.26,10.66-2.74.64-6.28-.13-8.3,2.55,2.89-.45,4.97-.05,7.78.42.11.08-.21.53-.4.62-.68.32-7.64,1.18-8.34,1.02-.11-.02-1.09-2.33-.88,0l-5.93.82,1.46.78.18-.78h.81s.23.83.23.83c1.07-.29,2.19-.65,3.3-.79,8.3-1,17.9-2.54,26.06-4.24,4.27-.89,8.89-2.8,13.31-3.48.44-.07,1.8-.48,1.73.3-8.1,1.4-15.94,4.73-23.82,6.69-6.53,1.62-13.88,2.65-20.5,3.67l-9.32,2.14c1.64-.14,3.43-.06,5.07-.26,9.14-1.11,19.52-2.88,28.59-4.58,3.94-.74,7.87-1.91,11.79-2.74.16.88-.39.97-1.03,1.22-2.77,1.08-7.79,2.3-10.83,3.09-6.5,1.69-13.16,2.67-19.67,4.29l1.38.36c9.73-1.99,19.66-3.14,29.33-5.27-.21.59-1.83.86-2.45,1.02-3.28.87-6.64,1.23-9.93,1.94-5.38,1.17-11.47,3.12-17.01,3.47-.8.05-1.37-.34-2.13-.3,1.58,2.04,6.02-.37,7.92-.02.32.06.17,1.03.82.84,12.84-2.31,26.31-4.8,38.71-8.85.7-.23,1.31-.39.46.46-2.81.96-5.63,2.21-8.51,2.96-12.42,3.24-27.04,6.11-39.72,8.6-2.31.45-4.71.69-7.05.94.28.75,2.4.45,3.07.4,7.16-.48,16.3-2.38,23.47-3.56,4.27-.7,8.51-1.48,12.78-2.17l-24.98,7.37c-.1.72.93.41,1.38.36,3.87-.42,7.74-2.24,11.73-1.79-2.6,1.12-5.81.82-8.44,1.78-.78.28-1.13,1.37-1.72,1.66-1.88.93-4.94,1.4-7.04,1.67l2.04-1.63-5.32.41.81.81c-.99.06-2.49-.08-2.46,1.23h-.82s.42-.81.42-.81c-.81.09-1.84-.18-2.59,0-.21.05-1.88,1.05-3.17,1.01-.96-.03-1.89-.52-2.84-.61l2.04,1.63-3.27.41.82-1.63-9.42,1.23,2.86.81-9.41.83c-.1.71.93.38,1.43.41,2.45.1,5.36.13,7.8.02,3.86-.18,7.14-1.05,10.73-1.55,12.79-1.77,25.73-3.46,38.05-7.41l.54.75-38.08,8.2,2.63.37,25.22-5.09c-1.34.99-3.29,1.28-4.9,1.65-9.97,2.35-20.18,4.06-30.32,5.52-.11.69.99.45,1.44.42,2.03-.11,4.27-.74,6.33-.83l-.71.72c-10.38,1.52-20.73,3.29-31.08,4.95-6.57,1.06-13.43,1.27-20.45,2.48-1.29.22-3.25-.54-3.86.85,6.41.17,12.5-2.53,19.07-1.67.77.1.54.78.87.85,1.61.37,2.38-.82,3.63-1.21,2.52-.78,5.14.06,7.41-1.62.52-.13,1.39,2.19,1.18-.03,2.65-.54,5.34.18,8.18,0,5.49-.36,11.04-1.91,16.59-2.04.1.56-.73.62-1.13.71-2.74.6-5.95.58-8.79,1.04-3.19.51-6.52,1.83-9.92,1.5l-.22,1.25-40.54,4.92c-.08.77.86.33,1.31.29,10.84-1.03,21.73-1.78,32.48-3.58l1,.62c-.9,1.1-2.54.46-3.88.62-11.23,1.28-22.49,2.94-33.79,3.27l2.04-.82c.13-.66-1.08-.49-1.45-.42-1.24.22-1.66.97-2.52,1.17-1.81.42-4.74.31-6.67.49.42-1.07,2.36-.76,3.27-.82-.53-1.75-3.14.77-2.86-1.22l19.87-1.64.6-.82c-.37-.29-4.95.73-5.94.81-25.49,2.05-52.62,3.58-78.23,2.48-1.46-.06-2.88-.37-4.49-.43-.35-.01-1.47.17-.81-.41l21.31.02,21.27-1.26-.19.83c1.56-.29,4,.8,4.79-.8l12.82-1.64-81.9-1.24c.12-.72,2.13-.46,2.68-.42,18.91,1.23,38.05.29,56.89,0,7.24-.11,22.35-1.45,28.61.03.33.08.11.74.87.84,1.79.23,4.1-.23,5.96-.04l-3.27-.82,1.85-1.22-.42-.82c-18.94,2.14-38.06.81-57.12.82-.08-1.02-.1-.7.61-.81,4.65-.69,9.26-.24,13.94-.4,21.2-.72,42.72-1.38,63.86-3.71,4.19-.46,8.15-1.75,12.49-1.23l-3.48-.81c-17.93,1.56-36.08,1.46-54.06,2.45-4.98.27-7.82.61-12.71.03-6.15-.74-12.4.3-18.61-.02-.06-.96-.14-.72.6-.82,4.45-.57,9.8.56,14.34-.18,1.08-.1,2.38.55,3.35.55,13.64.01,27.33-1.04,40.89-1.99,3.46-.24,6.96-.63,10.42-.84l-3.5-.42c-5.14.93-10.16.41-15.33.42-.03-.38,2.13-.81,2.25-.81h7.17v-.41h-7.99c-1.26,0-4.19,2.75-5.12.82l1.23-.41c-16.51-.12-33.02,1.91-49.55.81.07-.55.56-.72,1.04-.8,4.37-.74,10.57.5,15.15,0l8.38-.83c-3.48-.1-6.98.11-10.46.01-15.84-.46-31.61-.7-47.49-1.65-3.66-.22-7.38-.04-11.05-.42-.58-.06-2.46-.19-2.66-.81,5.5.74,11.07.18,16.6.39,23.17.87,46.43,1.5,69.6.02,3.49-.22,7.58.13,11.04-.43.48-.08.97-.25,1.04-.8h-2.46c-1.18-.87,7.43-1.95,7.98-2.05.6-.11,1.27,0,1.44-.82h-11.88v.82c.17.2.52-.41.61-.41h6.76c.02.62-1.43.7-1.89.77-.87.13-2.11-.14-2.77.09-.81.29.05,1.94-2.96,1.96-17.95.08-35.99.61-54.01-.36-13.24-.71-26.89-.68-40.13-2.05-1.83-.19-3.7-.58-5.53-.82-.1-.7.97-.44,1.42-.4,12.55,1.01,25.01,2.21,37.63,1.58l2.71-.76-32.55-.83-6.76-.81c7.58.13,15.16.26,22.74.39,20.1.33,40.34-.1,60.61-.78l4.69-.83c-2.43-.1-4.72-.46-7.18-.43-.97.01-1.86.43-2.83.44-14,.14-27.84.11-41.81-.42-7.54-.29-15.16-.83-22.71-1.24l35.21-.41-4.71-.81h-10.64s-10.44-1.23-10.44-1.23c10.44-.13,20.9.15,31.34.01,6.78-.09,13.6-.63,20.45-.43l3.48-.81c-5.4.11-10.79-.02-16.19-.02-9.73,0-19.64-.17-29.48-.38l-5.92-.83c6.07-.08,12.16.09,18.24.02.86-.01,1.68-.46,2.42-.42.64.04,3.1,1.6,3.09-.42-1.63.32-3.23-.32-4.71-.41-10.77-.63-22.3,0-33.18-.4-8.99-.33-19.29-.72-28.22-1.67-.48-.05-1.78-.8-.42-.82l25.37,1.67c8.72-.59,17.6.75,26.23.39.5-.02,1.52.31,1.43-.41-3.72-.67-7.49-.28-11.26-.42-8.15-.3-15.42-1.2-23.38-2.01-4.69-.48-10.63-.23-15.08-1.3-.28-.07-1.41-.32-.85-.78l13.51,1.23h8.39c.07-.6-1.07-.73-1.47-.78-4.93-.53-10.43-.27-15.52-.86-.52-.06-2.18-.14-2.25-.81,4.85.54,9.69.24,14.55.39.97.03,1.86.41,2.83.44,2.24.07,4.74.08,6.98-.02.5-.02,1.52.31,1.43-.41-6.02-.77-12.19-.94-18.22-1.65-6.36-.74-13.3-1.56-19.61-2.5-3.04-.45-6.7-1.1-9.69-1.78-.64-.15-2.26-.31-2.44-1.03,3.78.36,7.57,1.5,11.31,1.99,15.09,1.98,32.22,3.19,47.43,3.76,4.56.17,9.17-.16,13.73-.02,0-.69-1.36-.78-1.84-.82-2.91-.23-6.09.18-9.03.02-16.65-.88-33.27-2.34-49.89-3.75l-8.03-1.58,38.27,3.29,37.89.39-5.51-.83c-21.15-.27-42.23-1.58-63.29-3.26,1.02-1.51,4.53-.15,6.35,0,11.77.97,23.6,1.36,35.42,1.64.08-1.02.1-.7-.61-.81-7.44-1.11-14.99-1.95-22.48-2.51l-4.34-1.18c1.62-.31,3.17.37,4.69.42,19.79.73,39.61.28,59.41.38,4.87.02,10.25.58,15.15.03.61-.07,1.26-.09,1.42-.83-3.48.05-6.98-.07-10.46-.02-20.46.3-40.97-.7-61.41-2.03-15.52-1.01-31.09-1.84-46.47-4.1,0-.72,1.79-.45,2.27-.42,5.05.33,10.1,1.25,15.14,1.65,22.49,1.78,46.7,3.71,69.21,2.87.5-.02,1.52.31,1.43-.4-8.28-.96-16.83-.15-25.2-.4-.87-.03-1.66-.39-2.44-.42-5.71-.2-13.33.07-18.82-.84-.48-.08-.97-.25-1.04-.8,4.75-.15,9.37.6,14.13.41.5-.02,1.52.31,1.43-.41-2.85-.2-5.69-.76-8.51-1.11-15.12-1.89-32.49-1.45-47.38-4.64-.7-.15-1.22.46-1.02-.8l32.97,3.27c24.01,1.54,48.04.37,72.09.43l4.28-.83-63.06-2.06,2.45-.82-1.63-.81c3.07.07,6.16-.11,9.23-.02,20.22.57,40.33,1.53,60.61,1.26,3.09-.04,7.26.25,10.15-.05.86-.09,2.77-.3,3.14-1.19-3.06.22-6.15-.04-9.23-.02-33.17.18-66.45-.61-99.49-4.08l-17-2.45,44.84,3.68c53.65,2.5,107.51,1.42,160.93-4.5,24.58-2.73,49.41-6.11,72.89-13.93.65.42-.31.51-.61.62-17.31,6.47-34.81,9.83-53.09,12.44-7.37,1.05-14.87,1.92-22.26,2.52l.82.61-3.68.61v1.23s14.49-1.28,14.49-1.28c10.1-2.24,20.47-3.02,30.64-4.99,11.23-2.17,22.28-5.42,33.49-7.66l-7.37,2.66c-18.84,5.43-38.19,9.31-57.74,11.27.27.73,2.44.47,3.09.42,21.24-1.48,44.02-5.36,64.39-11.78,6.29-1.98,12.16-4.72,18.11-7.48ZM367.3,357.84c-1.6-.23-3.17.61-4.73.45-.75-.08-.55-.77-.88-.85-.78-.18-1.76.09-2.58-.01l26.2-5.32c.9.73-2.01,1.46-2.35,1.54-6.34,1.41-12.92,2.52-19.35,3.38l3.68.81ZM202.27,384.88c3.08-.16,6.12-.13,9.22,0,.5.02,1.52-.31,1.43.41-2.79-.02-5.6.03-8.39,0-.47,0-2.14.52-2.25-.41ZM163.37,367.27l19.65.82c-.13.62-2.84,1.49-3.06,1.47-.31-.02-.74-.58-1.25-.64-3.87-.4-8.06-.84-11.88-.62l-3.46-1.03ZM135.11,349.66l10.24.41c.1.71-.93.38-1.43.41-2.48.1-4.94-.33-7.39,0l-1.42-.82ZM154.77,338.19c1.36,1.04-3.08.86-3.5.83-3.28-.17-7.37-.41-10.58-.88-.46-.07-1.91-.15-1.89-.77l15.97.82ZM139.21,336.15l20.47.82c.1.71-.93.38-1.43.41-2.93.12-5.45-.34-8.18-.43-2.69-.09-5.57.22-8.22.03-.63-.04-2.43-.09-2.64-.83Z"/>
    <path d="M433.77,397.13c-.26-.26-3.65-1.84-4.1-1.93-2.25-.48-5.92-.43-8.02-.92-.18-.04-.62-1.39-1.92-.81v-2.04s3.49.82,3.49.82l.61-.82c-1.31.02-2.65-.81-3.91-.84-1.1-.02-1.9.52-3.15.35-1.3-.18-2.34-1.48-3.4-1.55-.87-.06-1.99.46-3.24.4-2.34-.1-5.68-1.78-7.75-1.63-.54.04-2.49.55-2.71,1.21h5.32c-.97,1.6-6.26,1.6-7.79,1.03-1.36-.5.81-.51.41-1.23-.53-.95-4.7-.72-5.89-.57-1.16.15-2.93,1.18-3.33,1.17-.54,0-1.03-.71-1.65-.8-1.08-.14-3.37-.16-4.4.07-1.59.36-1.64,1.56-2.55,2.37-4.78,4.26-10.13,8.95-15.76,11.88-.37,1.4,1.86.43,1.63,2.04-5.53-.64-9.68,2.91-14.46,4.99-37.01,16.03-90.77,18.9-130.71,17.13-30.97-1.37-65.25-2.79-93.03-17.54-3.23-1.72-6.33-5.61-9.43-1.34l-12.24.83c-1.35-.07-1.82-2.36-3.15-2.94-1.42-.62-2.42.38-3.17-.09-1.41-.88.81-1.22.82-1.85h-5.94c-.49,0-1.58-1.44-2.1-1.54-2-.38-5.29,1.54-6.09,1.54h-9.42c-.93.58-.09,1.52-.18,2.43l9.8.03c.05,1.24-1.41,1.88-2.45,2.05v.4c.95-.12,1.33,1.09,1.23,1.84-.07.55-1.37-.23-1.23.61,1.33.17,3.03-.24,4.29,0,.88.17,1.06,1,1.87,1.04.44.02,3.37-.47,3.76-.64.73-.32,1.05-2.39,3.19-1.62.39,1.56-2.26.55-2.45,1.63l3.68,2.05c-1.6.62-3.52-.69-4.62-.7-1.34-.01-4.22.88-5.61,1.31l5.29,1.48.03,1.6h4.1s-2.86-1.23-2.86-1.23c2.63-.14,4.73-.09,7.23.77.63.22,1.18-.37.96.86l-39.11,2.46-5.53,1.23c-.89.78,2.14,1.44,2.45,1.48,1.82.18,3.72-.74,5.33.78l-4.3,1.01-3.28-.39-.41.81c.63.9,9.21,3.24,10.67,3.28,1.43.05,3.39-.43,4.28-1.65h-7.78c-.11-.54.76-.66,1.12-.72,2.37-.36,4.28-.09,6.41-.14,1.14-.03,2.6-.72,3.93-.37l-1.22,2.45h2.05s0-1.64,0-1.64c1.12.52,2.91-.89,3.47-.82.27.03.88.71.22,1.03l-1.64.4,1.84,1.44.79-.85,9.24,1.88c-1.29.28-2.69.79-4.01.89-4.42.33-8.21-.04-13.02.5-2.13.24-4.55.24-6.71.45-1.29.98,2.6,1.18,3.07,1.03.57-.18.8-.8,1.31-.95,2.94-.85,7.95,1.11,10.59,1.53,1.4.22,3.03-.12,4.48.03,1.59.16,3.06,1,4.71.81l-1.23-1.63c1.75.71,2.68-1.02,3.18-1.2,3.98-1.46,10.93.43,15.26.17.76.76.37.42-.1.73-2.41,1.62-2.38.05-3.82-.1-.65-.07-1.37.4-2.04.4-1.7,0-3.41,0-5.11,0,1.87,3.53,6.15.79,8.62,3.11.15,1.82-2.83,1.74-4.12,1.39l.8,3.02-2.44,1.89c8.58.23,15.03,7.98,23.75,7.37l-.82-.81c8.52-1.71,17.36-.37,26.02-.81,2.37-.12,6.56-.4,8.67-1.16,2.3-.83,4.31-3.69,6.47-3.8,1.74-.08,3.73,1,5.35,1.22,9.62,1.31,19.25-.43,28.65.43,1.85.17,2.93,1.07,4.48,1.26,4.69.56,9.83-.71,14.55-.42-.21.63-2.06.74-2.66.81-4.04.47-8.21.12-12.08,1.65,1.07,1.78,3.6.34,5.12.37.93.02,4.99.35,5.65.53.32.09.83.52.7.73l-.82.82h5.32l-1.23-1.63c3.03-1.59,5.85-.39,8.8-.38,2.44,0,5.47-.5,7.79-.48,1.11.01,6.69.96,7.17.45v-1.65s2.25,0,2.25,0c.8.1-.53,1.3-.53,1.44.01,1.21,4.5,2.04,5.49,2.2,3.47.58,5.37.41,8.53.02,1.98-.24,12.7,1.06,13.33.43.06-.66.1-.94-.41-1.43-.83-.79-2.68-.54-3.27-1.43l35.21-.83c-.33-.9-2.43-.44-2.86-1.43-.07-.16-.16-1.06.24-1.03l1.4-.4c-4.49-.55-9.37.77-13.74.43-.99-.08-1.54-.98-2.64-.43.11-.45.69-.98,1.08-1.17.94-.47,6.7-.92,8.14-.9,1.75.02,10.03,2.01,10.82,1.21l.25-1.21c4.36.14,8.74-.09,13.1.01,6.14.14,12.66.36,18.82.84,1.39.11,4.5.27,5.57.58.88.25.87,1.05,1.44,1.4,1.43.89,4.02,1.57,5.69,1.62,3.98.1,21.27-2.66,24.88-4.11,1.08-.44,5.83-3.35,6.02-4.23.44-2-2.5-.62-2.66-.61-3.24.23-6.39.33-9.61.02l.42-.81c-2.53-.06-5.16.68-6.38-2.06-2.48,1.1-5-.17-7.54.01-.28-1.54.92-.35,1.66-.63.3-.12.52-.77.98-.84,1.37-.22,4.82,1.46,5.14-1.39-1.07-.17-1.54.8-2.6.8-4.31,0-12.27-2.17-16.92-2.82-1.09-.15-2.44.65-3.41-.65l1.64-.21c-.66-2.27-3.01-1.8-5.07-1.58-1.48.15-4.64,1.31-5.73,1.2-.3-.03-.24-.75-.76-.97-.82-.35-2.03-.35-3.01-.67-.58-.19-2.05-.62-2.23-1.24,2.39-1.56,4.37,1.1,5.95,1.21,1.2.09,3.42-.73,4.88-.82,4.86-.31,10.09.46,15.16,0,1.32-.12,3.93-.32,3.9-2.04h-3.28s0-1.64,0-1.64l-3.86-.02c-.41,2.19-2.97,2.73-4.33.85l3.28-.42-.42-.81c4.89.24,10.64-1.64,15.38-1.46.56.02,1.03.67,1.61.66l.41-.84,1.13.72,37.98-4.41c-1.16-1.63-3.66-1.38-5.32-.81l.82.41c-2.91,2.7-2-.93-2.21-1.24-.26-.38-1.47-.55-2.03-.86-.49-.27-.89-1-1.37-1.11-.87-.2-3.96.73-5.2.71-1.99-.03-4.41-1.07-6.54-.83l-.67-1.99c1.67-.73,2.51.77,3.04.85.57.08,10.12.05,10.64-.03,1.1-.18,2.52-1.12,3.73-1.22.81-1.26,1.19-2.23.78-3.72.48-.66,14.22-3.1,16.01-3.25,4.85-.39,9.43,1.3,14.12-.42-.15-.74-.81-.76-1.42-.83-1.82-.2-10.72.58-11.22-.04l-.03-1.56c2.27.72,2.61-1.94,3.07-2.07.74-.22,1.25.64,1.73.74,1.27.27,7.34.22,8.89.07,1.19-.12,2.36-1.93,3.5.63l-1.22,1.02c1.73.18,4.1-2.62,2.58-4.12ZM149.05,431.57c1.62-.97,3.22,1.07,2.39,2.38-.09.14-1.25.56-1.58.29-.67-.71-.94-1.71-.81-2.68ZM148.21,429.51c1.28,1.03-3.97,1.95-4.5.2l4.5-.2ZM137.97,418.85c-1.78.6-3.39,1.06-5.32.82,1.34-1.11,5.5-4.27,5.32-.82ZM142.07,433.2c-1.71,1.58-4.07,2.25-6.35,2.04-1.28-.12-2.16-.22-1.84-1.64l8.19-.41ZM132.88,430.35c.88-.07,1.31-.69,1.7-.75.67-.1,1.7.92,2.58.73-1.34,1.89-3.15.77-4.71.78-1.37,0-2.39.76-3.68.86-4.03.31-8.42-.23-12.49,0,.17-.82.84-.69,1.44-.81,4.65-.9,10.38-.43,15.17-.8ZM125.69,437.7c-.28-.34,2.52-2.15,3.27-1.63.28,1.97-1.93,2.13-3.27,1.63ZM109.92,410.67c.88-.04,1.78.02,2.66,0,.05,1.8-3.22,1.58-4.09.61-.19-.99.79-.58,1.43-.61ZM105.39,415.61c-1.46-.33-4.46-.13-4.27-2.48,1.84-.39,3.82.52,5.52.43,3.82-.2,6.72-1.62,11.5-1.27.73.05,1.33-.11,1.82.63,0,1.23-4.81.33-5.54.4-.89.08-2.61.74-3.82.92-1.01.15-2.26-.16-3.34.11-1.46,1.15,3.99.52,3.69,1.63-1.23-.39-2.9.51-3.87.41-.55-.06-1.02-.64-1.68-.79ZM107.68,417.83c-.18-1.09.63-.42,1.17-.45,1.92-.12,3.86-.23,5.79-.15-.8,1.08-3.78,1.04-5.25,1.13-.75.05-1.19.27-1.71-.52ZM126.1,443.84c-1.42-.04-2.86-.41-4.28-.43-1.91-.03-6.47.65-7.71-.07-.53-.31-.84-.42-.7-1.14h12.69v1.64ZM129.4,442.82c-.77.01-1.6-1.06-2.89-.2-.32-1.47,1.69-.62,2.58-.83.34-.08.34-.69.57-.81,2.51-1.26,7.72.3,10.11-.38.4-.12.23-1.01.65-1.46,1.27-1.33,3.76-.06,5.33-.21-.52,2.63-5.36.11-5.59,2.88-3.42.11-7.45.96-10.77,1.01ZM150.49,445.13c-.48.11-.49.94-.72,1.08-.79.5-7.96.09-9.33-.52,2.35-1.57,6.69.03,9.13-.61.31-.08,1.68-2.71,3.55-.62-.85,1.63-1.97.52-2.63.67ZM190.81,434.02h2.86l-.78.45.33,1.36-3.65,1.05v-1.22s2.45-.42,2.45-.42l-1.23-1.22ZM187.94,428.69c-2.45-.75-4.79-.12-7.1-.15-.39,0-2.33-.09-2.32-.66,3,.75,7.36-1.78,9.42.81ZM189.57,434.43l-3.47.84-2.26-1.25c2.57.48,2.99-1.74,5.73.41ZM165.94,432.05c.45.19,2.2,2.43,1.93,2.78-.39.51-7.7.07-6.14-1.22l4.09-.61c-1.66-1.44-4.08.98-5.72-1.23-.04-1.18,5.24.04,5.84.29ZM170.19,439.9c-3.08.1-5.84.81-9.08.25-.57-.1-1.09-.36-1.03-1.02,0-.33,1.45-.59,1.84-.62,2.31-.2,9.52.33,10.98-.41.23-.12.23-.74.57-.81,1.63-.37,2.43.63,3.63.79,2.12.29,10.33.37,11.54,1.36.11.09.57,1.08.52,1.11-1.67-.43-4.17.45-5.55.37-.89-.05-2.77-1.49-3.65-1.54-1.42-.08-4.2.71-5.75.76-1.45.05-2.81-.29-4.02-.25ZM196.13,443.43h-19.25l.24-1.26c3.61-1.06,7.38.22,11,.46,2.35.15,5.14-.31,7.4-.02.75.1.66-.14.61.82ZM197.77,438.72c-1.21.35-4.52.95-5.49.24l-.24-1.26h7.37c.02.53-1.24.91-1.64,1.02ZM204.73,443.43l2.65-1.94,1.44.92c.35,1.48-3.38.97-4.09,1.01ZM220.54,438.48c-1.07-.09-2.16-.66-3.32-.77-2.9-.28-6.24-.09-9.21-.42.22-.65,2.17-1.17,2.71-1.21,1.4-.11,2.11.85,3.23.84,1.61-.01,2.22-1.93,5.53-1.47,3.24.45,1.82,1.15,2.51,1.77.79.7,9.42-.52,11.14.37,1.34-.8,2.08-.86,3.42.02.4.26.73-.04.52.92-5.64.1-10.89.42-16.54-.04ZM234.32,444.35c-.59-.25-.62-.09-.51-.92l5.73.41c-.81,1.78-3.78,1.12-5.22.51ZM283.07,441.82l-3.4-.44c.27-.99,3.73-1.54,4.09-1.22l-.69,1.67ZM308.15,438.53c-.96-.14-1.93-1.67-3.06-1.87-.76-.13-1.97,1.33-2.48.01-.41-1.05-.03-.81.6-1.03,1.69-.58,4.1-.43,5.92-.78.08,2.49,2.2,1.32,3.31,2.83-1.45-.23-2.92,1.03-4.28.84ZM331.27,436.48c-2,2.02-6.29,1.68-9.01,1.63-.1-.58.72-.59,1.14-.7,2.62-.65,5.28-.29,7.87-.93ZM324.43,432.06c.34.16,3.53,2.99,1.72,2.78-1.34-.16-1.5-1.19-1.61-1.18-3.18.21-4.67.11-7.79-.07-3.2-.18-2.18.19-5.02-.72-.99-.32-3.59-.46-4.62-.29l.81,1.84-6.37-1.56-1.4,1.15-.42-1.22c.15-.19,4.37-1.24,4.71-1.24h11.67l-3.89-.82c-1.99.48-4.09.55-6.14.4-.61-.04-6.76-1.03-5.94-1.63,3.07,0,6.15-.02,9.23.01,2.9.03,4.95-.33,8.08.5,1.39.37,1.2,1.27,1.78,1.46,1.34.43,3.51-.24,5.19.57ZM389.21,415.59c.54.08,3.12.99,3.48,1.63-2.68.08-5.18.1-7.79-.61-.53-.14-1.97-.39-2.04-1.03,1.99.2,4.43-.28,6.35,0ZM369.35,403.3v-2.05s4.92.41,4.92.41c-.82,2.52-2.74,1.47-4.92,1.64Z"/>
    <path d="M105.22,282.9c-4.05-3.68-8.14-7.96-7.78-13.92-1.51.78-.7,3.42-.41,4.91,1.72,3.39,4.54,7.57,8.19,9.01Z"/>
    <path d="M354.04,429.5c-.8.78.14,1.6.97,1.87,2.31.76,3.55-.83,5.57-1.46.82-.13.8,1.13,1.28,1.25,4.33,1.11,5.71-2.49,9.55-2.06v-1.22c-1.1-.31-2.5.37-3.43.29-2.47-.22-5.69-2.52-8.02-2.99-1.78-.36-2.77.79-4.11-.58l-.83,1.63,2.87-.4c-.24.73-1.02,1.15-1.7,1.36-1.29.4-6.22,1.07-7.57,1.07-1.22,0-2.27-1.75-3.41-.19.59.88,2.15.63,2.05,1.84,2.51-2.32,5.16-1.54,8.18-1.22.25,1.28-.59.7-1.39.81Z"/>
    <path d="M305.38,447.13c-2.45,1.33-2.99,2.19-6.62,1.67l-3.52,1.18c2.26.2,14,2.28,14.97.84l.19-1.64c1.84-.04,4.03-.14,5.82-.53.4-.09,1.23-.15,1.13-.71-2.83.31-9.74-2.02-11.96-.81Z"/>
    <path d="M107.98,406.1c.96.14,1.7-.73,2.77-.78,1.66-.08,2.57,1.18,4.09,1.29,1.93.13,3.08-1.33,5.11-.44,1.05-1.06-4.43-4.5-5.11-5.18-3.66,1.07-6.07,2.96-10.04,1.91-.06,1.45,1.92,3.03,3.17,3.21Z"/>
    <path d="M404.37,432c-4.15.28-3.73-1.53-5.12,4.06,2.82.89,3.94.59,6.5-.66.99-.48,2.48-1.77,3.31-2.02,2.12-.64,4.77.17,7.2-.58.58-.18.72.24.6-.83-4.31-1.37-8.17-.26-12.49.03Z"/>
    <path d="M76.81,409.9c.73-.11,1.47-.05,2.2-.05l-.68-1.18c-1.28.84-8.1.43-8.33.78-1.01,1.54,2.11.99,1.22,2.03l-2.45,1.03c4.16,2.42,9.35-.3,13.92.2-.51-1.2-2.11-.68-3.19-1.09-.52-.2-.49-1.04-1.25-1.15-1.01-.14-2.59.48-3.75.19.08-.6,1.77-.68,2.3-.76Z"/>
    <path d="M103.62,277.34c4.61,4.47,13.44,8.59,19.51,10.79,5.66,2.06,14.9,4.86,20.79,5.41.63.06,2.8.35,3.06-.4-8.2-1.24-16.39-3.47-24.15-6.36-7.2-2.68-14.18-5.86-20.07-10.85-.19.81.42.97.85,1.39Z"/>
    <path d="M371.72,435.79c.87-.4.17-1.51,1.52-1.79,1.08-.22,2.23-.03,2.26,1.24,1.46-1.61,2.15-1.04,4.08-.82,1.48-1.44-3.54-2.09-4.28-2.07-1.06.04-2.16.86-2.89.82-.69-.04-1.2-1-1.98-.78-.71,1.5-2.9,2.01-2.71,3.67,1.22-.08,2.88.25,4.01-.27Z"/>
    <path d="M343.96,222.71l7.11,2.91c4.06,2.11,7.69,4.46,9.62,8.8l1.27,5.07c.97-10.1-9.8-14.79-18.01-16.78Z"/>
    <path d="M294.41,284.14l-22.93,4.7-4.5,1.43c8.73-1.77,17.57-3.33,26.2-5.53.46-.12,1.33.02,1.23-.6Z"/>
    <path d="M389.83,429.1c-1.38-1.88-4.1-1.67-6.14-1.63l.38,2.66c.64.11,4.51,2.58,3.65.47-.3-.73-1.33-.95-1.17-1.9l3.27.4Z"/>
    <path d="M396.5,432.26c-.29-.2-.37-.81-.77-1.07-1.36-.89-2.41-.02-3.86-.05-.21,2.58,4.61,2.74,5.73,1.23-.35-.02-.82.08-1.1-.12Z"/>
    <path d="M399.84,438.51c-.58.18-.72-.24-.6.83l5.93.82c.68-.31.59-1.12.11-1.54-1.03-.9-4.18-.5-5.44-.11Z"/>
    <path d="M235.45,453.47c0,.99,5.66.97,6.13-.61-2.05-.14-4.29-.81-6.13.61Z"/>
    <path d="M382.86,424.6l-5.73-.41c.33,2.41,4.57,1.9,5.73.41Z"/>
    <path d="M377.22,427.96c-1.9,3.1,3.41,1.34,3.59.52.36-1.58-2.93-.74-3.59-.52Z"/>
    <path d="M199.41,231.71c2.6-.24,6.63.26,8.6-1.63-2.19.39-4.44.6-6.64.94-.48.07-1.99.1-1.96.69Z"/>
    <path d="M94.99,436.68c1.39,1.3,4.32.96,5.32-.61-.84.1-5.32-.4-5.32.61Z"/>
    <path d="M301.38,444.87c1.19,1.5,2.51.71,4.09.61.29-1.93-4.11-1.37-4.09-.61Z"/>
    <path d="M101.53,398.59c.9.95,4.13,1.2,4.09-.61-1.36.01-2.92-.25-4.09.61Z"/>
    <path d="M348.05,355.8l-.61-2.05c-.41.37-.76.99-1.31,1.15-3.59,1.03-9.49.91-13.31,1.84l-3.6,1.11c3.87-.38,7.76-.75,11.61-1.28,2.34-.32,5.1-1.36,7.22-.76Z"/>
    <path d="M276.65,378.75l-3.53,1.21,19.24-1.84-7.15.21c-2.81.47-5.76.78-8.55.42Z"/>
    <path d="M229.91,346.79c-.5.02-1.52-.31-1.43.41l13.32.02,4.69-.83c-5.56-.08-11.05.18-16.59.41Z"/>
    <path d="M205.96,346.79c-.15.43,1.27.8,1.43.81,2.51.29,5.95,0,8.6,0,.34,0,1.38.58,1.43-.41-3.8-.47-7.63-.48-11.46-.41Z"/>
    <path d="M179.49,344.79c-1.75-.18-3.54.14-5.28-.26l-2.66,1.02h9.83c.04-.61-1.47-.73-1.89-.77Z"/>
    <path d="M223.77,363.58c-3.39.25-7.03-.18-10.44,0v.41h11.26c.25,0,1.38-.65,1.02-.81-.7-.3-1.47.38-1.84.41Z"/>
    <path d="M244.86,337.78h7.99c.07,0,.64-.55.61-.81l-3.09-.02-5.51.84Z"/>
    <path d="M337.41,360.3l.6,1.09c.99-.53,1.94.02,2.81-.02.54-.03,2.56-.1,2.73-.66-2.32.07-3.67-1.16-6.14-.41Z"/>
    <path d="M311.06,388.62c-.67.11-2.47.15-2.73.75,2.38.08,4.77-.28,7.11-.64.44-.07.96.66.67-.58-1.68-.05-3.39.21-5.05.47Z"/>
    <polygon points="328.77 363.42 325.95 364.39 334.13 363.17 328.77 363.42"/>
  </g>
  <g id="Layer_2" data-name="Layer 2">
    <path class="cls-2" d="M266.97,377.5c.02.62-1.43.7-1.89.77-.87.13-2.11-.14-2.77.09-.81.29.05,1.94-2.96,1.96-17.95.08-35.99.61-54.01-.36-13.24-.71-26.89-.68-40.13-2.05-1.83-.19-3.7-.58-5.53-.82-.1-.7.97-.44,1.42-.4,12.55,1.01,25.01,2.21,37.63,1.58l2.71-.76-32.55-.83-6.76-.81c7.58.13,15.16.26,22.74.39,20.1.33,40.34-.1,60.61-.78l4.69-.83c-2.43-.1-4.72-.46-7.18-.43-.97.01-1.86.43-2.83.44-14,.14-27.84.11-41.81-.42-7.54-.29-15.16-.83-22.71-1.24l35.21-.41-4.71-.81h-10.64s-10.44-1.23-10.44-1.23c10.44-.13,20.9.15,31.34.01,6.78-.09,13.6-.63,20.45-.43l3.48-.81c-5.4.11-10.79-.02-16.19-.02-9.73,0-19.64-.17-29.48-.38l-5.92-.83c6.07-.08,12.16.09,18.24.02.86-.01,1.68-.46,2.42-.42.64.04,3.1,1.6,3.09-.42-1.63.32-3.23-.32-4.71-.41-10.77-.63-22.3,0-33.18-.4-8.99-.33-19.29-.72-28.22-1.67-.48-.05-1.78-.8-.42-.82l25.37,1.67c8.72-.59,17.6.75,26.23.39.5-.02,1.52.31,1.43-.41-3.72-.67-7.49-.28-11.26-.42-8.15-.3-15.42-1.2-23.38-2.01-4.69-.48-10.63-.23-15.08-1.3-.28-.07-1.41-.32-.85-.78l13.51,1.23h8.39c.07-.6-1.07-.73-1.47-.78-4.93-.53-10.43-.27-15.52-.86-.52-.06-2.18-.14-2.25-.81,4.85.54,9.69.24,14.55.39.97.03,1.86.41,2.83.44,2.24.07,4.74.08,6.98-.02.5-.02,1.52.31,1.43-.41-6.02-.77-12.19-.94-18.22-1.65-6.36-.74-13.3-1.56-19.61-2.5-3.04-.45-6.7-1.1-9.69-1.78-.64-.15-2.26-.31-2.44-1.03,3.78.36,7.57,1.5,11.31,1.99,15.09,1.98,32.22,3.19,47.43,3.76,4.56.17,9.17-.16,13.73-.02,0-.69-1.36-.78-1.84-.82-2.91-.23-6.09.18-9.03.02-16.65-.88-33.27-2.34-49.89-3.75l-8.03-1.58,38.27,3.29,37.89.39-5.51-.83c-21.15-.27-42.23-1.58-63.29-3.26,1.02-1.51,4.53-.15,6.35,0,11.77.97,23.6,1.36,35.42,1.64.08-1.02.1-.7-.61-.81-7.44-1.11-14.99-1.95-22.48-2.51l-4.34-1.18c1.62-.31,3.17.37,4.69.42,19.79.73,39.61.28,59.41.38,4.87.02,10.25.58,15.15.03.61-.07,1.26-.09,1.42-.83-3.48.05-6.98-.07-10.46-.02-20.46.3-40.97-.7-61.41-2.03-15.52-1.01-31.09-1.84-46.47-4.1,0-.72,1.79-.45,2.27-.42,5.05.33,10.1,1.25,15.14,1.65,22.49,1.78,46.7,3.71,69.21,2.87.5-.02,1.52.31,1.43-.4-8.28-.96-16.83-.15-25.2-.4-.87-.03-1.66-.39-2.44-.42-5.71-.2-13.33.07-18.82-.84-.48-.08-.97-.25-1.04-.8,4.75-.15,9.37.6,14.13.41.5-.02,1.52.31,1.43-.41-2.85-.2-5.69-.76-8.51-1.11-15.12-1.89-32.49-1.45-47.38-4.64-.7-.15-1.22.46-1.02-.8l32.97,3.27c24.01,1.54,48.04.37,72.09.43l4.28-.83-63.06-2.06,2.45-.82-1.63-.81c3.07.07,6.16-.11,9.23-.02,20.22.57,40.33,1.53,60.61,1.26,3.09-.04,7.26.25,10.15-.05.86-.09,2.77-.3,3.14-1.19-3.06.22-6.15-.04-9.23-.02-33.17.18-66.45-.61-99.49-4.08l-17-2.45,44.84,3.68c53.65,2.5,107.51,1.42,160.93-4.5,24.58-2.73,49.41-6.11,72.89-13.93.65.42-.31.51-.61.62-17.31,6.47-34.81,9.83-53.09,12.44-7.37,1.05-14.87,1.92-22.26,2.52l.82.61-3.68.61v1.23s14.49-1.28,14.49-1.28c10.1-2.24,20.47-3.02,30.64-4.99,11.23-2.17,22.28-5.42,33.49-7.66l-7.37,2.66c-18.84,5.43-38.19,9.31-57.74,11.27.27.73,2.44.47,3.09.42,21.24-1.48,44.02-5.36,64.39-11.78,6.29-1.98,12.16-4.72,18.11-7.48-3.2,3.15-7.64,4.8-11.77,6.44-5.23,2.08-11.21,4.2-16.58,5.94-3.47,1.13-7.39,2.43-10.96,2.76-.2,1.24.31.65.99.83,1,.25,2.06.43,3.1.4l-3.05,1.66-7.08,2.34-15.67,2.15c-.09.76.86.34,1.31.29,12.29-1.39,24.42-3.71,36.36-6.84.19,1.1-.19.71-.89.93-7.11,2.24-14.63,3.4-21.87,5.18l-.99,1.26c11.25-.96,21.89-5.35,32.76-8.18l-12.38,5.02-18.33,4.4c0,.78,1.7.4,2.2.35,3.45-.34,7.5-1.39,10.91-2.19,8.51-2.01,16.83-4.76,24.77-8.4l.61.21c-5.09,2.95-10.86,5-16.46,6.88-3.3,1.11-6.83,2.33-10.16,3.36-1.88.58-4.46.37-6.14,1.64,9.24-1.13,18.24-3.73,26.89-7.11l.54.75c-12.13,3.96-24.36,7.69-36.85,10.45-4.34.96-8.54,1.57-12.85,2.3-4.04.68-8.06,1.52-12.13,2l3.88.4c13.38-1.68,26.51-4.19,39.52-7.57,4.41-1.14,8.67-2.81,13.1-3.89l-15.94,6.29c-6.13,1.31-12.19,3.05-18.37,4.23-2.18.41-10.53,1.15-11.55,1.99-.34.28-.38.94-.44.99-.33.24-1.36-.8-2.21-.83-1.09-.04-4.04.91-5.14,1.46,2.53.67,4.08,1.03,6.55-.21l-.41,1.22h1.64c-.88-2.38,1.18-1.6,2.38-1.87,1.46-.33,3.25-1.72,3.56-.17l.83-1.24h.8c.32,1.53,3.68.69,4.82.32,5.47-1.81,9.96-2.36,15.55-3.7s10.95-3.15,16.49-4.39c.65.41-.3.51-.59.64-1.99.9-4.4,1.78-6.47,2.54-11.85,4.38-25.17,7.83-37.26,10.66-2.74.64-6.28-.13-8.3,2.55,2.89-.45,4.97-.05,7.78.42.11.08-.21.53-.4.62-.68.32-7.64,1.18-8.34,1.02-.11-.02-1.09-2.33-.88,0l-5.93.82,1.46.78.18-.78h.81s.23.83.23.83c1.07-.29,2.19-.65,3.3-.79,8.3-1,17.9-2.54,26.06-4.24,4.27-.89,8.89-2.8,13.31-3.48.44-.07,1.8-.48,1.73.3-8.1,1.4-15.94,4.73-23.82,6.69-6.53,1.62-13.88,2.65-20.5,3.67l-9.32,2.14c1.64-.14,3.43-.06,5.07-.26,9.14-1.11,19.52-2.88,28.59-4.58,3.94-.74,7.87-1.91,11.79-2.74.16.88-.39.97-1.03,1.22-2.77,1.08-7.79,2.3-10.83,3.09-6.5,1.69-13.16,2.67-19.67,4.29l1.38.36c9.73-1.99,19.66-3.14,29.33-5.27-.21.59-1.83.86-2.45,1.02-3.28.87-6.64,1.23-9.93,1.94-5.38,1.17-11.47,3.12-17.01,3.47-.8.05-1.37-.34-2.13-.3,1.58,2.04,6.02-.37,7.92-.02.32.06.17,1.03.82.84,12.84-2.31,26.31-4.8,38.71-8.85.7-.23,1.31-.39.46.46-2.81.96-5.63,2.21-8.51,2.96-12.42,3.24-27.04,6.11-39.72,8.6-2.31.45-4.71.69-7.05.94.28.75,2.4.45,3.07.4,7.16-.48,16.3-2.38,23.47-3.56,4.27-.7,8.51-1.48,12.78-2.17l-24.98,7.37c-.1.72.93.41,1.38.36,3.87-.42,7.74-2.24,11.73-1.79-2.6,1.12-5.81.82-8.44,1.78-.78.28-1.13,1.37-1.72,1.66-1.88.93-4.94,1.4-7.04,1.67l2.04-1.63-5.32.41.81.81c-.99.06-2.49-.08-2.46,1.23h-.82s.42-.81.42-.81c-.81.09-1.84-.18-2.59,0-.21.05-1.88,1.05-3.17,1.01-.96-.03-1.89-.52-2.84-.61l2.04,1.63-3.27.41.82-1.63-9.42,1.23,2.86.81-9.41.83c-.1.71.93.38,1.43.41,2.45.1,5.36.13,7.8.02,3.86-.18,7.14-1.05,10.73-1.55,12.79-1.77,25.73-3.46,38.05-7.41l.54.75-38.08,8.2,2.63.37,25.22-5.09c-1.34.99-3.29,1.28-4.9,1.65-9.97,2.35-20.18,4.06-30.32,5.52-.11.69.99.45,1.44.42,2.03-.11,4.27-.74,6.33-.83l-.71.72c-10.38,1.52-20.73,3.29-31.08,4.95-6.57,1.06-13.43,1.27-20.45,2.48-1.29.22-3.25-.54-3.86.85,6.41.17,12.5-2.53,19.07-1.67.77.1.54.78.87.85,1.61.37,2.38-.82,3.63-1.21,2.52-.78,5.14.06,7.41-1.62.52-.13,1.39,2.19,1.18-.03,2.65-.54,5.34.18,8.18,0,5.49-.36,11.04-1.91,16.59-2.04.1.56-.73.62-1.13.71-2.74.6-5.95.58-8.79,1.04-3.19.51-6.52,1.83-9.92,1.5l-.22,1.25-40.54,4.92c-.08.77.86.33,1.31.29,10.84-1.03,21.73-1.78,32.48-3.58l1,.62c-.9,1.1-2.54.46-3.88.62-11.23,1.28-22.49,2.94-33.79,3.27l2.04-.82c.13-.66-1.08-.49-1.45-.42-1.24.22-1.66.97-2.52,1.17-1.81.42-4.74.31-6.67.49.42-1.07,2.36-.76,3.27-.82-.53-1.75-3.14.77-2.86-1.22l19.87-1.64.6-.82c-.37-.28-4.95.73-5.94.81-25.49,2.05-52.62,3.58-78.23,2.48-1.46-.06-2.88-.37-4.49-.43-.35-.01-1.47.17-.81-.41l21.31.02,21.27-1.26-.19.83c1.56-.29,4,.8,4.79-.8l12.82-1.64-81.9-1.24c.12-.72,2.13-.46,2.68-.42,18.91,1.23,38.05.29,56.89,0,7.24-.11,22.35-1.45,28.61.03.33.08.11.74.87.84,1.79.23,4.1-.23,5.96-.04l-3.27-.82,1.85-1.22-.42-.82c-18.94,2.14-38.06.81-57.12.82-.08-1.02-.1-.7.61-.81,4.65-.69,9.26-.24,13.94-.4,21.2-.72,42.72-1.38,63.86-3.71,4.19-.46,8.15-1.75,12.49-1.23l-3.48-.81c-17.93,1.56-36.08,1.46-54.06,2.45-4.98.27-7.82.61-12.71.03-6.15-.74-12.4.3-18.61-.02-.06-.96-.14-.72.6-.82,4.45-.57,9.8.56,14.34-.18,1.08-.1,2.38.55,3.35.55,13.64.01,27.32-1.04,40.89-1.99,3.46-.24,6.96-.63,10.42-.84l-3.5-.42c-5.14.93-10.16.41-15.33.42-.03-.38,2.13-.81,2.25-.81h7.17v-.41h-7.99c-1.26,0-4.19,2.75-5.12.82l1.23-.41c-16.51-.12-33.02,1.91-49.55.81.07-.55.56-.72,1.04-.8,4.37-.74,10.57.5,15.15,0l8.38-.83c-3.48-.1-6.98.11-10.46.01-15.84-.46-31.61-.7-47.49-1.65-3.66-.22-7.38-.04-11.05-.42-.58-.06-2.46-.19-2.66-.81,5.5.74,11.07.18,16.6.39,23.17.87,46.43,1.5,69.6.02,3.49-.22,7.58.13,11.04-.43.48-.08.97-.25,1.04-.8h-2.46c-1.18-.87,7.43-1.95,7.98-2.05.6-.11,1.27,0,1.44-.82h-11.88v.82c.17.2.52-.41.61-.41h6.76ZM244.86,337.78h7.99c.07,0,.64-.55.61-.81l-3.09-.02-5.51.84ZM171.56,345.56h9.83c.04-.61-1.47-.73-1.89-.77-1.75-.18-3.54.14-5.28-.26l-2.66,1.02ZM246.5,346.38c-5.56-.08-11.05.18-16.59.41-.5.02-1.52-.31-1.43.41l13.32.02,4.69-.83ZM207.39,347.61c2.51.29,5.95,0,8.6,0,.34,0,1.38.58,1.43-.41-3.8-.47-7.63-.48-11.46-.41-.15.43,1.27.8,1.43.81ZM348.05,355.8l-.61-2.05c-.41.37-.76.99-1.31,1.15-3.59,1.03-9.49.91-13.31,1.84l-3.6,1.11c3.87-.38,7.76-.75,11.61-1.28,2.34-.32,5.1-1.36,7.22-.76ZM343.55,360.72c-2.32.07-3.67-1.16-6.14-.41l.6,1.09c.99-.53,1.94.02,2.81-.02.54-.03,2.56-.1,2.73-.66ZM223.77,363.58c-3.39.25-7.03-.18-10.44,0v.41h11.26c.25,0,1.38-.65,1.02-.81-.7-.3-1.47.38-1.84.41ZM334.13,363.17l-5.37.25-2.82.97,8.19-1.22ZM273.12,379.95l19.24-1.84-7.15.21c-2.81.47-5.76.78-8.55.42l-3.53,1.21ZM249.77,378.32l-14.93.02c-10.05.13-20.06-.98-30.12-.22,2.14-.04,4.71.61,6.74.63,3.71.04,7.37-.04,11.06,0,8.42.09,17.45.33,25.82-.02.5-.02,1.52.31,1.43-.41ZM316.11,388.15c-1.68-.05-3.39.21-5.05.47-.67.11-2.47.15-2.73.75,2.38.08,4.77-.28,7.11-.64.44-.07.96.66.67-.58Z"/>
    <path class="cls-2" d="M352.15,315.67l-4.01,1.11c-4.08.43-8.1,1.26-12.17,1.76-18.73,2.3-37.73,3.22-56.51,4.09-28.44,1.32-56.69,1.86-85.16,1.22-13.33-.3-26.67-.41-39.94-1.63-.1-.71.93-.38,1.43-.41,2.54-.1,4.64.35,6.95.43,48.44,1.5,97.02,1.75,145.39-1.66,14.73-1.04,29.38-3.16,44.02-4.91Z"/>
    <path class="cls-2" d="M351.33,320.99l-2.67,1.22.62-1.22c-10.44,1.12-20.86,2.97-31.33,4.09-25.85,2.76-51.89,3.3-77.79,4.53l-20.29-.02c.15-.74.8-.76,1.42-.83,12.29-1.38,26.81.94,39.31-1.23,2.59-.09,5.23.16,7.81.03,26.67-1.34,53.44-3.75,79.89-7.36l3.01.8Z"/>
    <path class="cls-2" d="M217.42,412.31c.09-.72-.92-.39-1.43-.41-2.18-.09-4.37.08-6.55,0l-7.99-.81c8,.04,15.96.48,23.97.42,7.14-.05,14.57-.7,21.71-.85,1.09-.02,3.37.07,4.42.23.47.07.94-.21,1.08.6-1.55.09-3.15-.11-4.7,0-.55.04-2.48.2-2.67.81,6.77-.02,13.48-1.09,20.27-.81.5.02,1.52-.31,1.43.41-3.25-.22-6.38.64-9.6.83-18.4,1.08-39.4,1.62-57.78.42-.59-.04-2.15-.04-2.23-.84h20.07Z"/>
    <path class="cls-2" d="M319.8,406.17l-17.93,3.56c-1.37.68-8.55.37-9.09.94-1.2,1.27,1.93.35,2.25.37.99.06,1.95.51,2.87.48,3.36-.11,7.03-1.26,10.44-1.26l-8.45,1.99c-9.54-.45-18.83,1.59-28.21,2.92l-25.18,1.64c-.17-1.14.2-.76,1.02-.82,9.4-.62,18.86-.97,28.2-2.11,4.62-.56,9.29-1.39,13.93-2.04.52-.07,2.23-.17,2.3-.76-4.82.5-9.71.74-14.53,1.23-2.8.28-5.88,1.02-8.61,1.22-.46.03-1.52.3-1.42-.4l15.81-2.42c12.32-.45,24.36-3.32,36.61-4.54Z"/>
    <path class="cls-2" d="M284.17,320.58l-5.94.81c-3.03-.34-6.09.31-8.99.43-23.33,1-46.38.56-69.62-.03-9.91-.25-19.81-.08-29.71-.6,6.05-.29,12.18-.31,18.24-.22,25.44.37,50.73.53,76.14,0,6.65-.14,13.26.08,19.88-.39Z"/>
    <path class="cls-2" d="M303.37,399.25l.46,1.18c-3.84-.5-8.11.81-12.08,1.23-25.88,2.72-55.61,5.52-81.51,3.71-.7-.05-1.35.04-1.82-.64,7.97-.01,15.88.07,23.88-.05,20.17-.31,41.14-1.92,61.49-3.84,3.21-.3,6.37-1.24,9.58-1.59Z"/>
    <path class="cls-2" d="M135.93,327.14c.07.73-1.38.43-1.83.4-14.81-1.1-29.95-5.21-44.24-9.01-1.12,0-1.11.11-.05.46,9.4,3.16,19.59,5.05,29.33,6.92.09.73-.92.4-1.38.35-4.69-.44-10.73-1.94-15.42-3.01-9.44-2.16-19.57-4.91-28.4-8.87-4.21-1.89-9.55-4.27-12.55-7.72l4.91,2.45c-.34-1.19-3.2-1.4-2.66-2.86,8.73,5.73,19.56,9.25,29.6,12.17,13.94,4.04,28.25,6.96,42.68,8.72Z"/>
    <path class="cls-2" d="M335.36,400.85c-2.08,1.86-6.1,1.64-8.75,2.09-17.76,3.06-35.79,5.3-53.32,8.52l-5.08-.17c2.22.19,3.8-.87,5.65-1.31,11.23-2.7,22.99-3.07,34.63-4.68,8.99-1.25,17.89-3.22,26.88-4.44Z"/>
    <path class="cls-2" d="M82.28,307.88c-6.29-2.29-12.82-4.31-18.57-7.84-.77-.47-1.21-1.25-1.94-1.75-.4-.28-1.19-.16-1.61-.44-.57-.39-1.57-3.79-1.65-4.7-.76-.08-.4,1.34-.31,1.74,1.35,6.16,7.53,9.35,12.73,11.84,4.43,2.13,9.44,4.04,14.2,5.26l-.2.81c-8.16-3.44-22.75-6.6-26.72-15.46-.42-.93-1-2.57-.96-3.57.08-1.66,2.1-6.51,3.3-7.79.31-.33.95-1.15.82,0-7.21,10.29,4.61,14.72,12.3,18.02,2.8,1.2,6.37,1.71,8.59,3.89Z"/>
    <path class="cls-2" d="M339.87,398.39c.1.58-.73.59-1.14.7-4.78,1.18-10.41,1.82-15.34,2.69-6.53,1.15-13.37,2.71-20.05,3.3-.69.06-.96.58-1.55-.34.01-.53,4.05-1.18,4.81-1.32,5.76-1.03,11.67-1.33,17.44-2.22,5.28-.81,10.46-2.43,15.82-2.81Z"/>
    <path class="cls-2" d="M416.45,318.54c-5.56,5.07-12.82,6.22-19.74,8.3-5.37,1.62-10.68,3.81-16.29,4.38.24-.57,1.75-.9,2.37-1.1,8.21-2.7,16.78-4.28,24.87-7.48,2.98-1.18,5.88-2.77,8.79-4.1Z"/>
    <path class="cls-2" d="M158.04,318.54c-.28.72-2.43.46-3.09.42-8.39-.45-16.98-1.45-25.32-2.53-6.21-.8-12.58-1.64-18.69-3.02-.45-.1-1.32,0-1.22-.61,16.03,2.39,32.1,4.92,48.32,5.73Z"/>
    <path class="cls-2" d="M131.83,320.58c.11.68-.99.44-1.45.42-9.55-.33-28.41-3.32-37.38-6.47-.66-.23-1.1.21-.89-.92,12.88,3.91,26.42,5.11,39.72,6.97Z"/>
    <path class="cls-2" d="M385.32,352.11c.9.73-2.01,1.46-2.35,1.53-6.34,1.41-12.92,2.52-19.35,3.38l3.68.81c-1.6-.23-3.17.61-4.73.45-.75-.08-.55-.77-.88-.85-.78-.18-1.76.09-2.58-.01l26.2-5.32Z"/>
    <path class="cls-2" d="M264.92,413.54l-4.3.81-29.68.82c0-.69,1.36-.78,1.84-.82,4.63-.37,9.67-.26,14.32-.42,5.93-.21,11.9-.26,17.83-.39Z"/>
    <path class="cls-2" d="M71.64,326.72c-.89-.78-2.06-1.82-2.86-2.67-.41-.44-1.8-1.98-1.45-2.65l10.07,7.54,11.43,5.97c-6.49-.75-11.42-5.75-17.2-8.19,2.02,1.76,4.65,3.65,7,5.08s4.73,2.82,7.33,3.72c-.37.96-2.33-.05-2.97-.3-4.71-1.79-9.84-5.86-13.4-9.32.18-.15,1.6.63,2.05.81Z"/>
    <path class="cls-2" d="M210.87,400.44c-.83,1.63-2.9.43-4.28.39-8.53-.23-17.28.61-25.62-1.01l29.9.62Z"/>
    <path class="cls-2" d="M298.91,413.54c.2,1.24-.32.65-1,.83-7.31,1.89-16.03,1.77-23.57,2.44l5.56-1.61c3.85.96,7.76-.39,11.64-.44l-2.04-.81,9.41-.41Z"/>
    <path class="cls-2" d="M395.15,311.98c-.37.63-2.04.91-2.78,1.11-9.88,2.64-19.82,5.26-29.98,6.66l30.69-7.59,2.06-.18Z"/>
    <path class="cls-2" d="M145.35,359.08c.03.73.21.87-.61.82-1.6-.1-3.3-.28-4.92-.42-5.5-.45-12.7-1.02-18.02-2.05-.6-.12-1.27,0-1.44-.81l24.98,2.45Z"/>
    <path class="cls-2" d="M335.77,394.71l-4.02,1.1-26.69,4.22c-.68-.52.04-.75.61-.81,9.99-1.23,20.05-3.11,30.1-4.5Z"/>
    <path class="cls-2" d="M183.02,368.09c-.13.62-2.84,1.49-3.06,1.47-.31-.02-.74-.58-1.25-.64-3.87-.4-8.06-.84-11.88-.62l-3.46-1.03,19.65.82Z"/>
    <path class="cls-2" d="M90.88,345.97c-7.64-2.45-14.36-8.04-19.25-14.32.75-.66,3.44,3.24,3.89,3.68,2.38,2.32,5.84,5.17,8.68,6.88,2.15,1.29,4.91,2,6.68,3.76Z"/>
    <path class="cls-2" d="M97.02,374.63c-4.27-4.1-7.95-9.66-10.23-15.15l10.23,15.15Z"/>
    <polygon class="cls-2" points="180.97 325.09 177.48 325.51 158.23 324.28 156.82 323.45 180.97 325.09"/>
    <path class="cls-2" d="M154.77,338.19c1.36,1.04-3.08.86-3.5.83-3.28-.17-7.37-.41-10.58-.88-.46-.07-1.91-.15-1.89-.77l15.97.82Z"/>
    <path class="cls-2" d="M118.73,317.31c-.28.8-2.35.41-3.02.35-4.22-.36-8.42-1.62-12.63-2.11l-3.6-1.1,19.24,2.87Z"/>
    <path class="cls-2" d="M81.05,309.12c.07.82-1.18.24-1.56.12-2.84-.85-7.07-2.8-9.77-4.15-2.33-1.17-5.34-2.69-7.09-4.57l9.27,4.85,9.15,3.75Z"/>
    <path class="cls-2" d="M140.84,319.77l-1.31.29c-5.19-.76-10.9-.72-16.04-1.57-.95-.16-2.7-.21-3.12-1.17l20.47,2.46Z"/>
    <path class="cls-2" d="M159.68,336.96c.1.71-.93.38-1.43.41-2.93.12-5.45-.34-8.18-.43s-5.57.22-8.22.03c-.63-.04-2.43-.09-2.64-.83l20.47.82Z"/>
    <path class="cls-2" d="M400.47,327.14l-14.23,4.4c-1.2-.16-2.87.97-3.79-.1l18.01-4.29Z"/>
    <path class="cls-2" d="M357.48,401.67c-.18.78-1.03.81-1.64,1.02-2.75.96-6.13,1.35-9.01,1.84l10.65-2.86Z"/>
    <path class="cls-2" d="M340.27,395.93c-.16.66-1.78,1-2.35,1.12-3.09.67-6.75.62-9.93,1.33l3.58-1.12,8.7-1.33Z"/>
    <path class="cls-2" d="M145.35,350.07c.1.71-.93.38-1.43.41-2.48.1-4.94-.33-7.39,0l-1.42-.82,10.24.41Z"/>
    <path class="cls-2" d="M204.52,385.28c-.47,0-2.14.52-2.25-.41,3.08-.16,6.12-.13,9.22,0,.5.02,1.52-.31,1.43.41-2.79-.02-5.6.03-8.39,0Z"/>
    <path class="cls-2" d="M321.44,395.52l-7.78,1.23c-.19-1.24.3-.68,1.03-.8,2.18-.37,4.42-.63,6.55-1.24l.2.81Z"/>
    <path class="cls-2" d="M229.09,325.49c.14.04.63.56.61.81l-1.86.02-6.33-.84c2.09.35,5.71-.47,7.58,0Z"/>
    <path class="cls-2" d="M74.91,326.31c-1.83-1.23-4.04-2.23-5.32-4.09.2-.18,3.9,2.12,4.3,2.45.5.42,1.15.89,1.02,1.64Z"/>
    <rect class="cls-2" x="187.12" y="398.8" width="10.65" height=".41"/>
    <path class="cls-2" d="M89.24,332.46l-6.55-3.27c1.64.43,4.1,1.23,5.54,2.03.57.31,1.19.34,1,1.25Z"/>
    <path class="cls-2" d="M295.64,235.4c.27,1.72-2.37.45-3.11.45-3.32-.04-6.76.03-10.19-.04-.89-.02-2.21-1-2.67.41h3.69c-.07.56-.56.72-1.04.81-3,.51-7.77-.12-11.06,0-18.7.69-37.5,2.16-56.05,4.56-16.11,2.08-32.7,5.39-48.47,10.5-1.19.39-3.09.7-3.78,1.74,6.37-1.31,12.59-3.58,18.91-5.04,37.06-8.56,75.57-10.79,113.56-9.28l3.89.81c-1.7-.05-3.43.07-5.13.02-23.08-.68-46.13,2.2-69.14,4.54l-8.85,1.99c4.71-.24,9.45-1.25,14.13-1.63,9.69-.78,20.57-1.36,30.28-1.66,12.19-.37,24.32.46,36.47.84l1.43.41-36.26-.42c-.97.03-1.86.4-2.83.44-16.46.66-32.78,2.28-49.05,5-4.27.71-9.98,1.59-14.05,2.74-.56.16-1.27.05-1.41.84,2.39-.35,4.85-1.2,7.21-1.59.91-.15,1.86.06,2.78-.09,32.96-5.4,76.75-7.14,109.79-2.4.76.11,1.21-.42,1.03.8-2.06-.11-4.32-.67-6.35-.81-26.79-1.94-50.8-1.37-77.34,2.1-6.46.84-14.08,2.23-20.42,3.75-.61.14-2.19.43-2.36,1.11,6.61-.84,13.28-2.12,19.91-2.81,18.53-1.93,37.21-1.46,55.64-2.1l5.53.81h-18.65c-.97.01-1.86.4-2.83.43-15.03.44-28.15,1.73-42.98,3.3-.39.04-1.54.18-1.47.78,9.59-1.13,19.24-1.82,28.85-2.47l30.12-.39-.7.73c-23.28.09-46.8.29-69.65,4.9l-.45,1.13c-.55.35-12.09,2.21-12.95,2.11-.27-.03-.61-.37-.6-.67l3.47-.42c.67-.58-.43-.4-.76-.36-7.14.94-15.35,2.61-22.39,4.24s-14,3.63-20.68,6.35c-1.54-.03.67-1.07.88-1.17,2.46-1.19,5.92-2.41,8.54-3.34,4.86-1.71,10.24-3.55,15.36-4.09l-2.86-.81,14.33-2.88-.61-1.22c-.39.33-.82.61-1.33.71-9.02,1.82-18.94,5-27.87,7.76-5.42,1.67-10.76,3.78-15.85,6.27-.82-.63-.13-.66.32-.93,1.07-.64,2.7-1.36,3.87-1.85,7.64-3.18,16.78-6.23,24.68-8.9,1.3-.44,2.81-.47,4.09-1.03.08-.73-1.4-.44-1.8-.37-1.54.26-2.9,1.19-4.23,1.51-7.69,1.82-15.39,3.87-22.84,6.64-4.36,1.62-8.45,3.85-12.68,5.74-.5-.29.68-1.06.87-1.17,3.1-1.75,7.17-3.06,10.35-4.83,1.14-.63,1.37-1.38,2.19-1.88,1.26-.77,2.99-1.47,4.4-1.96l-2.25-.41c2.11-.92,3.3-2.14,5.39-2.81.66-.21,1.16.33.96-.87-8.86,2.37-17.82,5.17-26,9.42l-.61-.82,12.28-4.93-2.04-.81c2.18-.33,4.09-1.68,6.12-2.28,2.18-.64,5.25-.85,7.39-1.62s4.11-2.68,6.27-3.56c3.5-1.42,7.91-1.94,11.54-3.2.67-.55-.47-.44-.8-.4-4.97.57-10.43,2.88-15.15,4.5l-.42-.82,1.85-1.02-2.86-.61,1.63.81-3.68.82h2.45s-1.23,1.23-1.23,1.23l2.05.41c-2.03.38-3.94,1.7-5.97,2.02-.42.07-1.1.27-.98-.37l2.04-.42c.11-.72-.95-.43-1.34-.32-1.98.56-8.4,4.3-9.84,3.95-.3-.07-.85-.61-.7-.76,3.88-1.54,8.42-2.99,12.11-4.88.45-.23,1.26-.09.39-.85-1.57.51-3.22,1.32-4.72,1.86-2.51.89-6.17,1.73-9.11,3.15-.76.37-1.26,1.33-1.83,1.48-.76.21-1.51-.38-2.57-.18-2.86.53-6.92,3.8-9.84,4.74,2.49-2.27,6.19-4.12,9.27-5.67,6.94-3.49,15.82-7.34,23.09-10.08,1.15-.43,2.41-1.08,3.57-1.34,2.65-.59,5.94.92,7.88-1.33l-7.78.61c.05-1.55,1.9-.54,2.37-.74.07-.03.12-.53.41-.65,1.74-.7,6.05-2.71,7.62-2.52.33.04.06.9.82.85,1.81-.11,5.03-1.79,7.47-2.01,1.67-.15,3.39.33,4.68.18,1.71-.2,3.98-1.7,5.62-2.16,6.07-1.72,9.7-1.18,15.44-1.76,6.34-.63,12.68-1.95,19.05-2.46-.21-.85-.61-.65-1.22-.64-5.15.08-11.14,1.68-16.34,2.07-.39.03-1.37.03-1.28-.6,6.88-.77,13.78-1.87,20.68-2.46,14.98-1.27,30.08-1.61,45.05-1.24,6.76.17,13.52.18,20.27.83Z"/>
    <path class="cls-2" d="M251.41,262.43c-3.87.32-7.8.4-11.66.83-14.17,1.57-28.44,3.61-42.47,6.27-15.27,2.89-30.54,6.38-44.97,12.16-.13-1.12,1.26-1.48,2.05-1.84,3.44-1.54,8.64-2.9,12.37-4.01,20.94-6.22,44.71-10.24,66.45-12.58,6-.65,12.09-.87,18.02-1.63l.19.81Z"/>
    <path class="cls-2" d="M258.78,259.57l-11.26,1.63c-23.53,1.51-46.69,6.02-69.81,10.24.36-.68,2.1-.85,2.86-1.03,25.68-5.95,51.91-9.39,78.22-10.84Z"/>
    <path class="cls-2" d="M243.63,266.12l-5.58,1.17c-19.92,2.4-39.84,5.19-59.53,9.06-.1-.63.76-.48,1.23-.6,3.85-.98,7.87-1.8,11.78-2.56,17.2-3.33,34.66-5.43,52.1-7.07Z"/>
    <path class="cls-2" d="M237.9,258.34c.19,1.25-.31.67-1.03.8-4,.72-8.53.74-12.63,1.3-7.74,1.06-15.43,2.65-23.19,3.63-.19-1.11.2-.71.89-.93,3.12-1.01,9.39-1.79,12.88-2.29,7.68-1.1,15.39-1.64,23.08-2.51Z"/>
    <path class="cls-2" d="M264.93,263.24c-10.7-.04-21.26,1.62-31.94,2.05l6.76-1.22c4.52-.15,9.01-.93,13.52-1.23,2.53-.16,8.04-.69,10.25-.43.61.07,1.26.08,1.42.83Z"/>
    <path class="cls-2" d="M232.16,265.3c-.25.58-2.07.66-2.72.76-6.56.97-13.26,1.36-19.8,2.51l4.01-1.11c6.18-.71,12.25-2.23,18.51-2.16Z"/>
    <path class="cls-2" d="M215.37,236.22c.2,1.26-.32.65-1.02.8-4.8,1.01-9.71,1.63-14.53,2.47.36-.63,2.06-.93,2.78-1.11,4.19-1.03,8.54-1.4,12.78-2.16Z"/>
    <path class="cls-2" d="M367.31,246.87c1.48-3.53,2.86-6.01,2.45-10.03-.12-1.16-.88-2.06-.62-3.07,2.85,3.71,1.31,10-1.84,13.1Z"/>
    <path class="cls-2" d="M251,232.94l-.2.81c-3.55-.8-8.56.22-12.29.43-1.19.11-.37-.67.08-.75.59-.1,2.87-.49,3.19-.49h9.21Z"/>
    <path class="cls-2" d="M231.76,234.18c-.16.82-.87.67-1.43.81-2.72.69-6.09.87-8.9.96-.6.02-1,.51-1.54-.35l11.87-1.43Z"/>
    <path class="cls-2" d="M279.67,258.33h-13.1c-.09-.72.93-.39,1.43-.41,3.12-.12,6.89-.67,9.85-.43.72.06,1.58-.08,1.82.84Z"/>
    <path class="cls-2" d="M260.42,257.92l-5.12.81-8.18.42c.45-1.47,3.53-.71,4.92-.81.53-.04,1.07-.42,1.21-.42h7.17Z"/>
    <path class="cls-2" d="M323.9,229.26l-1.02.81-8.81-1.63c3.33-.33,6.52.75,9.83.82Z"/>
    <path class="cls-2" d="M262.88,264.07c-.08,2.23-3.97,2.09-5.32,1.02l5.32-1.02Z"/>
    <path class="cls-2" d="M180.56,243.19c-.1.64-1.96,1.01-2.43,1.04-.83.07-1.57-.32-2.25-.24-1.59.18-3.07,1.02-4.73.83l3.52-1.18,5.89-.45Z"/>
    <path class="cls-2" d="M324.31,254.24c0,.71.23.88-.58.79-1.48-.17-3.47-.51-4.95-.79-.6-.11-1.27,0-1.44-.81l6.96.82Z"/>
    <path class="cls-2" d="M289.91,253.83c.66.5,0,.74-.61.82-1.29.16-4.77.42-5.54-.82h6.14Z"/>
    <path class="cls-2" d="M269.84,268.58c-1.23,1.66-3.89.78-5.53.78-1.1,0-2.24.97-3.07-.17l8.6-.61Z"/>
    <path class="cls-2" d="M231.75,268.98c.15,1.35-.23.58-.76.66-2.02.29-4.17.24-6.2.56-.07-.61,1.1-.6,1.55-.69,1.7-.33,3.66-.53,5.41-.53Z"/>
    <path class="cls-2" d="M316.12,431.56l-3.89-.82c-1.99.48-4.09.55-6.14.4-.61-.04-6.76-1.03-5.94-1.63,3.07,0,6.15-.02,9.23.01,2.9.03,4.95-.33,8.08.5,1.39.37,1.2,1.27,1.78,1.46,1.34.43,3.51-.24,5.19.57.34.16,3.53,2.99,1.72,2.78-1.34-.16-1.5-1.19-1.61-1.18-3.18.21-4.67.11-7.79-.07s-2.18.19-5.02-.72c-.99-.32-3.59-.46-4.62-.29l.81,1.84-6.37-1.56-1.4,1.15-.42-1.22c.15-.19,4.37-1.24,4.71-1.24h11.67Z"/>
    <path class="cls-2" d="M188.65,439.45c.11.09.57,1.08.52,1.11-1.67-.43-4.17.45-5.55.37-.89-.05-2.77-1.49-3.65-1.54-1.42-.08-4.2.71-5.75.76-1.45.05-2.81-.29-4.02-.25-3.08.1-5.84.81-9.08.25-.57-.1-1.09-.36-1.03-1.02,0-.33,1.45-.59,1.84-.62,2.31-.2,9.52.33,10.98-.41.23-.12.23-.74.57-.81,1.63-.37,2.43.63,3.63.79,2.12.29,10.33.37,11.54,1.36Z"/>
    <path class="cls-2" d="M221.99,437.22c.79.7,9.42-.52,11.14.37,1.34-.8,2.08-.86,3.42.02.4.26.73-.04.52.92-5.64.1-10.89.42-16.54-.04-1.07-.09-2.16-.66-3.32-.77-2.9-.28-6.24-.09-9.21-.42.22-.65,2.17-1.17,2.71-1.21,1.4-.11,2.11.85,3.23.84,1.61-.01,2.22-1.93,5.53-1.47s1.82,1.15,2.51,1.77Z"/>
    <path class="cls-2" d="M107.26,414.36c-1.46,1.15,3.99.52,3.69,1.63-1.23-.39-2.9.51-3.87.41-.55-.06-1.02-.64-1.68-.79-1.46-.33-4.46-.13-4.27-2.48,1.84-.39,3.82.52,5.52.43,3.82-.2,6.72-1.62,11.5-1.27.73.05,1.33-.11,1.82.63,0,1.23-4.81.33-5.54.4-.89.08-2.61.74-3.82.92-1,.15-2.26-.16-3.34.11Z"/>
    <path class="cls-2" d="M145.76,438.93c-.52,2.63-5.36.11-5.59,2.88-3.42.11-7.45.96-10.77,1.01-.77.01-1.6-1.06-2.89-.2-.32-1.47,1.69-.62,2.58-.82.34-.08.34-.69.57-.81,2.51-1.26,7.72.3,10.11-.38.4-.12.23-1.01.65-1.46,1.27-1.33,3.76-.06,5.33-.21Z"/>
    <path class="cls-2" d="M137.16,430.33c-1.34,1.89-3.15.77-4.71.78-1.37,0-2.39.76-3.68.86-4.03.31-8.42-.23-12.49,0,.17-.82.84-.69,1.44-.81,4.65-.9,10.38-.43,15.17-.8.87-.07,1.31-.69,1.7-.75.67-.1,1.7.92,2.58.73Z"/>
    <path class="cls-2" d="M176.88,443.43l.24-1.26c3.61-1.06,7.38.22,11,.46,2.35.15,5.14-.31,7.4-.02.75.1.66-.14.61.82h-19.25Z"/>
    <path class="cls-2" d="M309.12,434.86c.08,2.49,2.2,1.32,3.31,2.83-1.45-.23-2.92,1.03-4.28.84-.96-.14-1.93-1.67-3.06-1.87-.76-.13-1.97,1.33-2.48.01-.41-1.05-.03-.81.6-1.03,1.69-.58,4.1-.43,5.92-.78Z"/>
    <path class="cls-2" d="M126.1,442.2v1.64c-1.42-.04-2.86-.41-4.28-.43-1.91-.03-6.47.65-7.71-.07-.53-.31-.84-.42-.7-1.14h12.69Z"/>
    <path class="cls-2" d="M167.87,434.83c-.39.51-7.7.07-6.14-1.22l4.09-.61c-1.66-1.44-4.08.98-5.72-1.23-.04-1.18,5.24.04,5.84.29.45.19,2.2,2.43,1.93,2.78Z"/>
    <path class="cls-2" d="M149.77,446.21c-.79.5-7.96.09-9.33-.52,2.35-1.57,6.69.03,9.13-.61.31-.08,1.68-2.71,3.55-.62-.85,1.63-1.97.52-2.63.67-.48.11-.49.94-.72,1.08Z"/>
    <path class="cls-2" d="M142.07,433.2c-1.71,1.58-4.07,2.25-6.35,2.04-1.28-.12-2.16-.22-1.84-1.64l8.19-.41Z"/>
    <path class="cls-2" d="M389.21,415.59c.54.08,3.12.99,3.48,1.63-2.68.08-5.18.1-7.79-.61-.53-.14-1.97-.39-2.04-1.03,1.99.2,4.43-.28,6.35,0Z"/>
    <path class="cls-2" d="M199.4,437.7c.02.53-1.24.91-1.64,1.02-1.21.35-4.52.95-5.49.24l-.24-1.26h7.37Z"/>
    <path class="cls-2" d="M374.27,401.67c-.82,2.52-2.74,1.47-4.92,1.64v-2.05s4.92.41,4.92.41Z"/>
    <path class="cls-2" d="M331.27,436.48c-2,2.02-6.29,1.68-9.01,1.63-.1-.58.72-.59,1.14-.7,2.62-.65,5.28-.29,7.87-.93Z"/>
    <path class="cls-2" d="M137.97,418.85c-1.78.6-3.39,1.06-5.32.82,1.34-1.11,5.5-4.27,5.32-.82Z"/>
    <path class="cls-2" d="M239.54,443.85c-.81,1.78-3.78,1.12-5.22.51-.59-.25-.62-.09-.51-.92l5.73.41Z"/>
    <path class="cls-2" d="M189.57,434.43l-3.47.84-2.26-1.25c2.57.48,2.99-1.74,5.73.41Z"/>
    <polygon class="cls-2" points="193.67 434.02 192.89 434.47 193.23 435.83 189.58 436.88 189.57 435.65 192.03 435.24 190.81 434.02 193.67 434.02"/>
    <path class="cls-2" d="M114.64,417.23c-.8,1.08-3.78,1.04-5.25,1.13-.75.05-1.19.27-1.71-.52-.18-1.09.63-.42,1.17-.45,1.92-.12,3.86-.23,5.79-.15Z"/>
    <path class="cls-2" d="M151.43,433.96c-.09.14-1.25.56-1.58.29-.67-.71-.94-1.71-.81-2.68,1.62-.97,3.22,1.07,2.39,2.38Z"/>
    <path class="cls-2" d="M187.94,428.69c-2.45-.75-4.79-.12-7.1-.15-.39,0-2.33-.09-2.32-.66,3,.75,7.36-1.78,9.42.81Z"/>
    <path class="cls-2" d="M204.73,443.43l2.65-1.94,1.44.92c.35,1.48-3.38.97-4.09,1.01Z"/>
    <path class="cls-2" d="M283.76,440.16l-.69,1.67-3.4-.44c.27-.99,3.73-1.54,4.09-1.22Z"/>
    <path class="cls-2" d="M112.59,410.67c.05,1.8-3.22,1.58-4.09.61-.19-.99.79-.58,1.43-.61.88-.04,1.78.02,2.66,0Z"/>
    <path class="cls-2" d="M148.21,429.51c1.28,1.03-3.97,1.95-4.5.2l4.5-.2Z"/>
    <path class="cls-2" d="M128.97,436.06c.28,1.97-1.93,2.13-3.27,1.63-.28-.34,2.52-2.15,3.27-1.63Z"/>
    <path class="cls-2" d="M352.56,279.63c-1.13,1.23-3.22,2.09-4.77,2.8-10.87,4.98-23.33,9.01-34.87,12.23-14.79,4.12-29.86,7-45.13,8.72-.36-1.07,1.27-1.01,1.95-1.11,11.02-1.58,21.16-3.08,32.04-5.64,17.38-4.1,34.53-9.59,50.77-17Z"/>
    <path class="cls-2" d="M331.27,286.59c.1.6-.71.54-1.14.69-16.99,5.74-35.05,10.82-52.83,13.52-1.49.23-3.22.56-4.68.69-.66.06-1.02.44-1.55-.36,10.11-1.89,20.23-3.79,30.23-6.21,10.08-2.44,19.96-5.63,29.96-8.32Z"/>
    <path class="cls-2" d="M334.13,279.63l-3.17,1.53c-14.02,5.19-28.55,8.96-43.1,12.39-.2-1.2.29-.66.95-.87,6.68-2.05,13.57-3.44,20.43-5.39,8.35-2.38,16.6-5.11,24.89-7.66Z"/>
    <path class="cls-2" d="M307.51,291.92l-23.25,6.03-21.8,3.38,22.13-4.28c6.73-1.27,13.7-3.74,20.35-5.03.85-.17,1.71-.12,2.56-.09Z"/>
    <path class="cls-2" d="M320.21,286.59l-6.65,2.56c-11.88,2.96-23.74,6.89-35.94,8.08l21.22-4.78,21.37-5.86Z"/>
    <path class="cls-2" d="M258.78,302.97c.02.62-1.43.7-1.89.77-2.23.33-4.7.23-6.91.46-5.07.53-10.18,1.53-15.36,1.22-.66-.5,0-.74.6-.82,1.72-.21,3.94.08,5.68-.06.92-.08,1.82-.49,2.71-.56,5.02-.42,10.15-.4,15.16-1Z"/>
    <path class="cls-2" d="M358.29,280.04c-2.91,2.1-6.65,3.86-9.96,5.39-5,2.31-10.17,4.43-15.43,6.07.22-.61,1.57-1.02,2.18-1.29,1.65-.73,3.41-1.19,5.06-1.9,6.1-2.62,12.03-5.68,18.15-8.26Z"/>
    <polygon class="cls-2" points="294.82 287.41 280.97 290.56 264.52 293.14 292.68 287.52 294.82 287.41"/>
    <path class="cls-2" d="M120.78,295.19c-6.34-.91-12.47-4.04-18.02-7.16.72-.97.67-.39,1.33-.11,1.78.74,3.52,2.04,5.35,2.84,3.3,1.44,6.64,2.33,9.95,3.57.52.2,1.26.09,1.38.86Z"/>
    <path class="cls-2" d="M369.76,271.03c-1.82,1.83-4.24,3.47-6.43,4.83-3.02,1.89-7.86,4.75-11.02,6.18-.59.27-1.12.55-1.8.45l19.24-11.46Z"/>
    <path class="cls-2" d="M348.06,287.82l-5.99,3.21c-5.55,2.15-10.99,4.87-16.93,5.79-.1-.6.71-.54,1.14-.69,2.08-.71,4.25-1.12,6.33-1.87,5.25-1.89,10.22-4.64,15.46-6.44Z"/>
    <path class="cls-2" d="M311.61,283.73l-2.76,1.12-13.61,2.97c-.2-1.14.24-.69.9-.92,2.69-.95,8.24-2.37,11.06-2.89,1.2-.22,3.04.18,4.42-.28Z"/>
    <path class="cls-2" d="M97.85,287c-.69.62-3.46-3.09-3.86-3.72-.96-1.51-2.06-3.47-1.87-5.29l2.03,4.31,3.7,4.7Z"/>
    <path class="cls-2" d="M94.16,292.32c-1.96-1.93-2.69-5.17-3.27-7.78l3.27,7.78Z"/>
    <path class="cls-2" d="M96.98,287.46c.17.39.31.91.63,1.19.88.76,2.33.94,2.28,2.03-.84.12-4.48-2.24-4.49-2.66l1.58-.56Z"/>
    <path class="cls-2" d="M249.77,378.32c.1.71-.93.38-1.43.41-8.37.35-17.4.11-25.82.02-3.69-.04-7.35.03-11.06,0-2.04-.02-4.6-.67-6.74-.63,10.06-.75,20.07.35,30.12.22l14.93-.02Z"/>
    <path class="cls-2" d="M97.44,268.98c1.11,3.16,1.69,6.02,3.69,8.8,3.08,4.27,7.66,6.32,11.46,9.63l-2.87-1.22c1.3,2.5,3.83,2.86,5.73,4.5-5.02-.39-5.74-5.47-9.63-7.37l-.4.82c-3.86-2.42-7.51-5.6-8.4-10.24,1.72,3.39,4.54,7.57,8.19,9.01-4.05-3.68-8.14-7.96-7.78-13.92Z"/>
  </g>
  <path class="cls-2" d="M61.7,288.64c.09.97-1.42,4.27.41,4.1.6-4.91,5.38-9.11,9.29-11.8,3.79-2.61,15.59-8.81,20.14-9.45.02.53.04,1.07.06,1.6.25.2.5.41.75.61-6.06,3.96-19.78,7.9-16.75,16.81,1.23,3.61,7.61,6.38,11.08,7.14l-1.03-1.63,10.86,4.09c.1.71-.95.42-1.38.36-1.2-.15-2.3-.79-3.53-.77.17.72.95.9,1.54,1.12,3.71,1.32,9.17,2.39,13.12,3.26,31.77,6.97,62.63,6.88,94.9,8.3,44.65,1.96,91.6-1.89,135.87-8.65,18.19-2.78,47.75-7.13,63.61-15.83.98-.54,5.29-3.25,5.74-3.88,3.26-4.59-4.1-10.94-7.24-13.38,4.99,1.96,10.54,5.71,9.83,11.87,1.32-.47.63-4.23.31-5.43-1.06-3.89-6.27-5.51-8.91-8.08,7.95,2.5,16.64,10.33,7.37,17.6.37.35,3.67-2.59,4.09-3.08,2.06-2.42,2.81-5.62,1.18-8.54-2.44-4.38-10.01-7.07-12.84-8.05-4.29-1.48-9.41-3.09-15.27-4.63-.11-1.13-.22-2.26-.32-3.39,3.71-.31,6.51.25,8.43.85,2.28.71,3.5.98,11.44,3.31,2.4.71,2.45.71,2.89.84,5.6,1.73,16.7,7.3,17.03,14.26.14,3.05-1.48,6.44-5.76,10.07-11.78,9.99-42.82,16.81-58.29,19.93-53.37,10.77-113,12.44-167.35,11.17-36.52-.85-85.95-2.76-119.91-16.46-5.01-2.02-13.09-5.25-12.42-11.79.05-.47.43-2.34,1.06-2.45Z"/>
  <path class="cls-2" d="M99.47,271.11c-.3-1.2-1.09-3.57-.73-6.64,1.28-10.88,14.66-17.9,24.09-21.85-2.07,1.26-4.09,2.56-6,3.91-8.81,6.24-18.15,15.43-9.09,26.14,9.93,11.74,46.46,19.89,61.48,20.02l3.03-.77c-6.09-.16-12.1-1.13-18.09-2.18-12.81-2.25-42.1-8.39-47.92-21.29-2.82-6.26-.2-11.09,4.38-15.43.22,1.53-1.62,2.76-2.43,4.13-2.87,4.91-2.3,9.53,1.19,13.89,11.16,13.98,49.57,19.16,66.74,20.08,3.49.19,7-.22,10.46.39.89-.64-5.45-1.52-5.99-1.58-13.93-1.71-26.05-1.82-39.97-5.49-9.86-2.6-25.9-7.57-26.94-19.54,1.11-.25.7.34,1.01.81,6.76,10.18,13.58,13.55,25.29,16.9,3.03.87,7.68,2.17,10.74,2.36.45.03,1.93.29,1.85-.42-6.04-.82-12.17-2.36-17.93-4.39-6.83-2.41-15.28-6.23-17.69-13.63,2.3,2.16,3.96,4.42,6.58,6.31,6.78,4.88,23.34,9.94,31.68,10.49,7.12.48,15.5-3.51,22.57-5.31,15.28-3.89,31.17-6.23,46.86-7.81l-3.52,1.18c-18.06,2.79-39.89,4.99-56.78,12.01-.35.14-1.73.53-1.32,1.14,24.69-7.59,49.26-10.76,74.91-13.55,3.11-.34,6.37-1.35,9.88-1.21,1.92.07,3.66.83,5.62.49l.71.75c-15.74.65-31.28,3-46.76,5.87-8.72,1.62-18.07,3.28-26.54,5.81-2.51.75-4.81,1.99-7.38,2.45-.87.99-.18.52.46.46,8.08-.8,15.31-2.76,23.22-4.22,18.88-3.48,39.69-6.03,58.85-7.5,2.59-.2,9.23-.74,11.46-.42.34.05.62.11.82.41.02,1.51-1.84.32-2.87.37-2.75.15-8.89.03-11.05.45-.9.17-1.15,1.04-2.06,1.22-2.44.48-6.63,0-9.38.45-8.88,1.43-17.98,3.1-26.93,4.6-9.97,1.67-19.94,3.45-29.82,5.61-.08.77.86.33,1.31.29,7.86-.73,15.53-2.25,23.27-3.76,13.03-2.53,26.64-4.1,39.92-5.13,4.4-.34,9.26-.14,13.71-.41.35,1.03-1.24,1.1-1.88,1.18-9.47,1.13-19.1,1.33-28.57,2.56-11.74,1.52-23.26,4.59-35.06,5.68-.13.52.76.67,1.08.68,5.74.1,11.84-1.27,17.56-1.91l16.58-1.23-22.93,3.28c-.1.71.93.39,1.43.41,3.78.15,8.12.16,11.9.02,31.23-1.18,62.04-7.42,91.31-18.03,12.56-4.55,34.29-14.41,42.59-24.98,6.13-7.81.12-15.39-7.37-18.85-19.1-8.81-53.19-11.06-74.14-10.25l-15.34,1.25c0,.7,1.82.47,2.28.44.71-.05,1.38-.43,1.61-.44,2.11-.1,4.24.07,6.35,0l-42.18,5.32c10.16-.71,20.33-1.61,30.52-1.65,12.99-.06,26.27.68,39.3,1.65,3.81.28,7.59.31,11.4.88.65.1,2.47.18,2.72.76-6.35-.38-12.67-1.3-19.02-1.65-20.78-1.16-40.79.83-61.44,2.48-5.56.98-11.17,1.64-16.74,2.51-1.02.16-2.12.33-3.13.56-.45.1-1.32,0-1.22.61,9.84-1.68,19.75-1.98,29.7-2.44,16.65-.76,33.69-1.49,50.37-.44,3.37.21,6.79.64,10.16.89l5.58,1.17-18.61-1.65c-15.46-.23-30.87.22-46.29.84l-26.42,3.27.2.81c2.37-.67,4.94-1,7.38-1.22,4.99-.45,10.59-1.03,15.54-1.25,1.31-.06,2.8-.03,4.12.02.5.02,1.52-.31,1.43.41l-15.76,1.24-4.3.81c6.55.15,13.36-1.49,19.86-1.43.35,0,1.14.06,1.02.61-10.23,1.26-20.61,1.48-30.8,2.99-.24.04-2.6.44-.93.72l46.27-3.7,1.43.41c-14.45.79-28.81,2.25-43.15,4.15-6.57.87-13.69,2.6-20.13,3.22-1.22.12-2.44-.38-3.22-.3-.81.09-1.69,1.23-2.94,1.5-.37.08-1.53.3-1.41-.38l1.63-.41c-.58-.04-1.16-.02-1.74.09-23.81,4.81-45.25,12.45-66.59,23.92-.56.3-.95.72-1.7.55.52-.72,1.58-1.5,2.33-1.97,14.11-8.85,31.14-15.59,46.92-20.24,5.63-1.66,11.36-3.14,17.09-4.41.1-.74-.89-.37-1.33-.3-.86.14-1.7.53-2.6.68-.88.14-1.81-.04-2.73.14-9.56,1.84-18.71,5.59-28.15,7.68l2.87-1.43c-2.37-.96-3.7,1.56-5.03,2.38-1.54.96-4.02,1.23-5.71,2.03-2.14,1-4.08,2.6-6.26,3.57-.31-1.93,3.04-2.25,4.3-2.87.07-.8-1.26-.35-1.65-.21-2.53.87-6.15,2.81-8.59,4.1-2.12,1.12-4.13,3.18-6.54,3.48,6-4.76,13.13-7.75,20.08-10.83,3.5-1.55,7.55-2.31,10.52-3.78.64-.31.6-1.03,1.2-1.27.96-.38,2.72-.34,3.81-.91.09-.73-1.4-.44-1.8-.37-10.6,1.79-22.48,9.35-32.15,13.72-.61.28-1.18.22-.85-.44.34-.69,11.69-6.68,13.36-7.52,4.55-2.3,9.26-4.54,14.07-6.21.09-.76-.83-.32-1.25-.22-1,.24-2.36.77-3.36,1.14-1.97.74-5.03,2.72-6.66,3.17-.72.2-.86-.34-.41-.82.36-.38,8.42-4.01,9.52-4.41,1.35-.49,5.12-1.03,5.84-1.53,1.67-1.15-1.42-1.72-2.45-1.02l1.22.81-7.58,1.23c3.67-2.11,7.82-3.84,11.98-4.82,1.54-.36,2.04.62,2.42-1.34,26.75-8.03,54.73-12.99,82.68-14.3,5.71-.27,12.77.05,18.02-1.23,3.81-.93,10.27-1.47,14.72-1.65,12-.48,23.35,1.06,35.22,2.04,9.73.8,17.93.64,27.64,3.07,2.38.59,8.29,2.22,10.24,3.28.54.29.66.78-.21.62-3.58-1.16-7.55-2.85-11.24-3.51-.43-.08-1.72-.59-1.66.22,15.8,3.48,40.11,14.24,20.89,32.16-9.96,9.29-23.5,13.23-34.66,20.2l-30.46,9.89c2.41.6,4.08-.64,6.05-1.11,16.94-4,54.4-17.48,65.41-30.83,3.39-4.11,6.02-10.97,3.29-16-.6-1.11-1.7-1.66-1.86-2.85,1.37,1.44,4.54,5.17,5.27,10.81.62,4.76-.77,8.82-2.47,11.84-7.08,7.25-17.42,12.25-26.01,16.19-34.31,15.76-78.27,24.12-115.84,27.49-30.1,2.7-61.95,3.15-91.6-3.4-10.9-2.41-36.08-10.2-39.11-22.31Z"/>
</svg>